<svg width="34" height="35" viewBox="0 0 34 35" fill="none" xmlns="http://www.w3.org/2000/svg">
<g filter="url(#filter0_dd_31_39)">
<path fill-rule="evenodd" clip-rule="evenodd" d="M16.9769 16.7514L25.0767 24.581C25.5065 24.9964 26.0894 25.2298 26.6973 25.2298C27.3051 25.2298 27.888 24.9964 28.3178 24.581C28.7476 24.1655 28.9891 23.602 28.9891 23.0145C28.9891 22.4269 28.7476 21.8634 28.3178 21.448L20.215 13.6184L28.3163 5.78885C28.529 5.58313 28.6977 5.33893 28.8128 5.07018C28.9279 4.80144 28.9871 4.51342 28.987 4.22256C28.987 3.9317 28.9276 3.64371 28.8124 3.37501C28.6972 3.10632 28.5284 2.8622 28.3155 2.65658C28.1027 2.45096 27.8501 2.28788 27.5721 2.17663C27.2941 2.06539 26.9961 2.00817 26.6952 2.00824C26.3943 2.00831 26.0964 2.06566 25.8184 2.17703C25.5404 2.2884 25.2879 2.4516 25.0752 2.65732L16.9769 10.4869L8.87716 2.65732C8.66592 2.4457 8.41319 2.27687 8.13373 2.16068C7.85426 2.04448 7.55366 1.98325 7.24945 1.98056C6.94524 1.97787 6.64353 2.03377 6.36191 2.14499C6.08029 2.25622 5.8244 2.42055 5.60919 2.62839C5.39397 2.83623 5.22373 3.08342 5.1084 3.35554C4.99307 3.62766 4.93496 3.91926 4.93746 4.21332C4.93995 4.50738 5.00301 4.79802 5.12295 5.06827C5.24289 5.33852 5.41731 5.58297 5.63603 5.78737L13.7389 13.6184L5.63756 21.4494C5.41884 21.6538 5.24442 21.8983 5.12448 22.1685C5.00454 22.4388 4.94148 22.7294 4.93898 23.0235C4.93648 23.3175 4.99459 23.6091 5.10993 23.8813C5.22526 24.1534 5.3955 24.4006 5.61071 24.6084C5.82593 24.8162 6.08182 24.9806 6.36343 25.0918C6.64505 25.203 6.94677 25.2589 7.25098 25.2562C7.55518 25.2535 7.85579 25.1923 8.13526 25.0761C8.41472 24.9599 8.66745 24.7911 8.87869 24.5795L16.9769 16.7514Z" fill="white"/>
<path d="M4.05847 6.55078C3.5926 6.19092 3.39321 5.66633 3.37878 5.19141C3.38051 5.24815 3.39279 5.31562 3.41394 5.37891C3.25469 5.11531 3.1202 4.79783 3.12097 4.41797C3.12171 4.05851 3.2446 3.76043 3.37878 3.51562C3.37505 3.46126 3.36428 3.39906 3.35535 3.32812C3.30329 2.91629 3.36853 2.32709 3.83582 1.85156C3.97599 1.70893 4.14364 1.63676 4.29285 1.55859C4.45887 1.20433 4.72306 0.865116 5.16003 0.644531L5.85144 0.445312C6.27664 0.413865 6.65215 0.548503 6.94128 0.703125C7.05662 0.657083 7.17678 0.595864 7.31628 0.574219C7.84645 0.49289 8.2947 0.673867 8.61707 0.914062C8.94512 0.903436 9.31669 0.933262 9.67175 1.11328L10.0585 1.37109L10.3514 1.6875C10.4848 1.87335 10.5462 2.07614 10.5975 2.26172C11.0889 2.59734 11.2186 3.0726 11.2655 3.44531C11.5059 3.53817 11.7598 3.66228 11.9686 3.89062C11.9774 3.90026 11.9836 3.91606 11.9921 3.92578C12.4302 3.93371 13.1135 4.08371 13.4921 4.81641C13.5563 4.94079 13.5792 5.0708 13.6093 5.19141C14.0033 5.25135 14.4864 5.47131 14.7811 5.97656C14.813 6.03181 14.816 6.09782 14.8397 6.15234C15.0472 6.21288 15.2667 6.31339 15.4725 6.49219C15.9542 6.91304 16.0199 7.4515 16.0233 7.80469C16.125 7.90401 16.2386 7.98547 16.3163 8.09766C16.4792 8.0932 16.6454 8.12371 16.8202 8.15625C16.8613 8.13444 16.8965 8.10353 16.9374 8.08594C16.9498 8.06393 16.9587 8.03766 16.9725 8.01562C17.2001 7.65311 17.5249 7.47405 17.828 7.37109C17.9198 7.25334 18.0152 7.14865 18.121 7.06641C18.2171 6.83955 18.3754 6.60814 18.6249 6.41016C18.8159 6.25933 19.0213 6.17213 19.2108 6.11719C19.2463 6.0797 19.2876 6.04696 19.328 6.01172C19.3967 5.5689 19.6241 5.01304 20.2421 4.71094L20.4413 4.64062C20.5403 4.40351 20.7176 4.16482 20.9803 3.96094L21.6483 3.63281C21.8637 3.58097 22.0687 3.57879 22.2225 3.58594H22.246C22.3659 3.33609 22.5434 3.09821 22.7968 2.90625C22.8081 2.89768 22.8205 2.89103 22.8319 2.88281C22.8526 2.82689 22.863 2.76357 22.8905 2.70703C23.0438 2.39202 23.2933 2.1582 23.5819 1.98047C23.7218 1.49911 24.0428 1.04097 24.6014 0.773438C24.9612 0.351896 25.4667 0.0430833 26.0897 0L26.9218 0.105469C27.0904 0.159436 27.2306 0.264159 27.3788 0.351562C27.7933 0.354019 28.1998 0.434911 28.5624 0.679688C29.0613 1.01705 29.2521 1.49678 29.3475 1.92188C29.4352 1.9526 29.5304 1.96907 29.6171 2.00391C29.8822 2.11076 30.2185 2.2916 30.4843 2.625C30.773 2.98773 30.8975 3.42598 30.8827 3.85547C30.8632 4.40477 30.6581 4.8907 30.3436 5.27344C30.2231 5.41996 30.119 5.54312 30.0389 5.64844C29.9567 5.75678 29.8793 5.86132 29.8163 5.95312C29.6818 6.14817 29.5158 6.28972 29.3475 6.41016C29.2967 6.59374 29.2483 6.79062 29.1366 6.97266C29.1112 7.01436 29.0802 7.06723 29.0546 7.13672C28.9162 7.51137 28.6538 7.80484 28.328 8.05078C28.2137 8.64769 27.8342 9.22319 27.1327 9.49219C26.8094 9.77829 26.4549 9.9555 26.0897 10.0312C26.0437 10.1177 26.0201 10.2173 25.9608 10.3008C25.8091 10.514 25.6213 10.6783 25.4218 10.8164C25.3921 10.8787 25.38 10.9529 25.3397 11.0156C25.1331 11.3362 24.8281 11.5517 24.5077 11.6719C24.4307 11.7006 24.3481 11.6903 24.2733 11.707C24.2399 11.979 24.151 12.3327 23.8514 12.6445C23.7048 12.797 23.5388 12.8861 23.3827 12.9609C23.3104 13.1584 23.1911 13.3439 23.0194 13.5234C23.1638 13.6052 23.3097 13.7071 23.4413 13.8516C23.6131 14.0414 23.722 14.2565 23.8046 14.4609C23.979 14.5754 24.157 14.7157 24.2968 14.9297C24.4326 15.1379 24.4929 15.3542 24.5311 15.5508C24.5832 15.5996 24.6361 15.6478 24.6835 15.7031L24.9413 16.0898L25.0936 16.5586C25.3846 16.5825 25.7442 16.6681 26.078 16.9336C26.2683 17.0851 26.3998 17.2605 26.4999 17.4375C26.6178 17.472 26.7354 17.5133 26.8514 17.5664L27.3788 17.8828L27.7655 18.2812C27.8769 18.4232 27.9675 18.5782 28.0468 18.7383L28.0585 18.7617C28.4429 18.9624 28.7511 19.2882 28.9022 19.7109C28.91 19.7327 28.9071 19.7597 28.9139 19.7812C29.0832 19.9046 29.2409 20.0238 29.3475 20.1797L29.6171 20.8008L29.6522 20.918C29.8596 20.9882 30.0937 21.0928 30.3085 21.2695C30.7465 21.6316 30.9979 22.1859 30.953 22.7812C30.9107 23.3297 30.634 23.7095 30.3436 24C30.3202 24.1707 30.2756 24.3545 30.1796 24.5391C29.9259 25.0262 29.502 25.2184 29.2069 25.3242C29.1979 25.4019 29.2039 25.4858 29.1835 25.5703C29.1361 25.765 28.9985 26.2289 28.5389 26.5547C28.1804 26.8078 27.8064 26.8255 27.496 26.8008C27.2823 26.9256 27.0078 27.0522 26.6639 27.0469C26.265 27.0395 25.9646 26.8741 25.7499 26.7188C25.7213 26.7241 25.6966 26.7492 25.6678 26.7539C25.4393 26.791 25.06 26.8107 24.66 26.625C24.2192 26.4194 23.9484 26.0602 23.8163 25.7109C23.7768 25.6064 23.7875 25.4958 23.7694 25.3945C23.5881 25.3221 23.4011 25.2422 23.2303 25.1133C22.947 24.8994 22.7648 24.6382 22.6444 24.375C22.379 24.3452 22.0626 24.2786 21.7655 24.0586C21.6122 23.9447 21.4634 23.821 21.3202 23.6953C21.0379 23.4474 20.8789 23.1449 20.7694 22.8516C20.7031 22.7938 20.6182 22.748 20.5585 22.6758C20.3871 22.4678 20.2973 22.2432 20.2421 22.043C20.0016 21.9429 19.755 21.7886 19.5507 21.5156C19.5094 21.4604 19.4893 21.3957 19.4569 21.3398C19.3572 21.3056 19.24 21.311 19.1405 21.2578C18.8256 21.0887 18.5454 20.8541 18.3202 20.5664C18.2921 20.5306 18.2595 20.5002 18.2264 20.4727C17.9461 20.2389 17.8014 19.9522 17.7108 19.6875C17.5661 19.6169 17.414 19.5424 17.2772 19.418C17.2065 19.3535 17.1579 19.2757 17.1014 19.207C16.8518 19.332 16.612 19.3782 16.3983 19.3945C16.2941 19.5126 16.1683 19.5993 16.035 19.6875V19.6992C15.9123 20.0443 15.6505 20.3053 15.3436 20.5195C15.2674 20.7942 15.1327 21.1029 14.8397 21.3516C14.6329 21.5271 14.4096 21.6112 14.2069 21.668C13.9369 22.0417 13.5809 22.266 13.2225 22.3359C13.2079 22.3388 13.1901 22.3218 13.1757 22.3242C13.1069 22.5153 13.0401 22.7056 12.953 22.8867C12.8715 23.0561 12.7854 23.2279 12.6952 23.3906C12.3831 23.9503 11.882 24.2101 11.4061 24.3164C11.3047 24.67 11.1389 25.0352 10.8202 25.3359C10.5703 25.5717 10.2919 25.702 10.0233 25.7812C9.88494 25.9499 9.71921 26.1213 9.47253 26.2383C9.15202 26.389 8.83758 26.4124 8.58191 26.3906C8.49485 26.4779 8.41644 26.5842 8.30066 26.6602C7.90305 26.92 7.42959 27.0138 6.97644 26.9297C6.75746 26.889 6.54283 26.8317 6.33191 26.7656C6.32719 26.7641 6.30405 26.7547 6.2616 26.7539C5.60582 26.7402 5.02733 26.4269 4.65613 25.8984C4.51543 25.6979 4.4354 25.4849 4.37488 25.2773C4.119 25.1031 3.94028 24.8789 3.81238 24.6211C3.5724 24.4525 3.25365 24.1966 3.09753 23.7539C2.8586 23.0736 3.10454 22.4744 3.34363 22.1367L3.36707 22.1016C3.32834 21.8211 3.30866 21.4828 3.4491 21.1289C3.63332 20.6662 3.9795 20.3616 4.31628 20.1797L5.078 19.9219C5.14053 19.912 5.20354 19.9154 5.2655 19.9102C5.3046 19.8594 5.34689 19.8073 5.38269 19.7461C5.46043 19.6132 5.53969 19.4809 5.61707 19.3477C5.79414 19.0428 6.02576 18.8511 6.2616 18.7148C6.31643 18.5804 6.3639 18.4277 6.47253 18.293C6.72355 17.9825 7.04699 17.8421 7.328 17.7656C7.39004 17.7 7.44832 17.6263 7.52722 17.5664C7.5757 17.5297 7.63052 17.5025 7.67957 17.4727C7.69739 17.2423 7.7457 16.9995 7.84363 16.7578L8.20691 16.1953C8.36045 16.0326 8.54395 15.8957 8.75769 15.7969C9.13711 15.6232 9.51227 15.6003 9.77722 15.6211C9.86857 15.5872 9.95599 15.5493 10.0468 15.5273C10.0739 15.4593 10.0908 15.3851 10.1288 15.3164C10.1546 15.2699 10.1937 15.2302 10.2225 15.1875C10.2173 15.1 10.1932 15.0107 10.1991 14.918C10.2223 14.5606 10.3546 14.0458 10.8085 13.6523C10.9145 13.5605 11.0345 13.497 11.1483 13.4297C10.8935 13.325 10.6599 13.1591 10.4686 12.9023C10.3138 12.832 10.1476 12.7473 9.99988 12.6094C9.69094 12.32 9.56789 11.9768 9.50769 11.6836C9.11804 11.6252 8.64186 11.4539 8.31238 10.9688C8.19263 10.7917 8.10497 10.6093 8.05457 10.4297C7.82656 10.2835 7.61778 10.1042 7.48035 9.85547C7.4199 9.7457 7.38345 9.63179 7.35144 9.52734C7.28012 9.51961 7.20293 9.5449 7.12878 9.52734C6.82951 9.45604 6.49942 9.29142 6.23816 8.98828C6.11181 8.8407 6.01879 8.68155 5.95691 8.53125C5.59555 8.42131 5.2091 8.19655 4.96082 7.72266C4.8832 7.5745 4.80138 7.42797 4.72644 7.27734C4.64867 7.121 4.61429 6.9536 4.5741 6.79688C4.41022 6.73799 4.22407 6.67831 4.05847 6.55078ZM10.4335 24.8203C10.4242 24.9198 10.3686 25.0349 10.328 25.1719C10.3961 25.0246 10.4262 24.897 10.4335 24.8203ZM29.7577 24.4805C29.7679 24.475 29.8201 24.445 29.8866 24.3867L29.8983 24.3516C29.843 24.386 29.8088 24.4533 29.7577 24.4805ZM3.61316 24.082C3.63478 24.2445 3.69503 24.3758 3.75378 24.4805C3.70223 24.3482 3.63185 24.2228 3.61316 24.082ZM26.3475 3.1875C26.2484 3.47683 26.1021 3.7829 25.8319 4.04297C25.7572 4.11471 25.6665 4.16931 25.5858 4.23047C25.5342 4.40645 25.4809 4.60139 25.3514 4.78125C25.2029 4.98713 25.02 5.12704 24.8358 5.23828C24.7265 5.62287 24.5364 6.01698 24.1796 6.32812C23.893 6.57758 23.574 6.65675 23.3007 6.70312C23.2381 6.84767 23.1584 7.0065 23.0311 7.14844C22.7905 7.41478 22.5084 7.53697 22.2577 7.60547C22.2459 7.63277 22.248 7.67166 22.2343 7.69922C22.0223 8.12057 21.6546 8.3825 21.2616 8.50781C21.1552 8.62129 21.029 8.73467 20.8749 8.82422C20.8133 8.8598 20.7369 8.85652 20.6757 8.88281C20.6583 8.90979 20.66 8.94977 20.6405 8.97656C20.5366 9.11863 20.4117 9.23415 20.2889 9.32812C20.185 9.57158 20.005 9.79113 19.7264 9.98438C19.6689 10.1494 19.5972 10.3332 19.4569 10.5C19.2639 10.7286 19.0377 10.8605 18.8241 10.9453C18.7453 11.1724 18.6378 11.4081 18.4374 11.6133C18.0112 12.0486 17.4752 12.1627 17.16 12.1992C16.9023 12.2287 15.9679 12.2918 15.4022 11.4609C15.324 11.3459 15.2818 11.2236 15.2382 11.1094C14.9182 11.0363 14.5764 10.8979 14.2889 10.5703C14.0866 10.3388 13.9497 10.0735 13.8436 9.80859C13.6387 9.6209 13.4499 9.41597 13.3163 9.17578C13.3044 9.15425 13.3038 9.12708 13.2928 9.10547C13.0539 9.0722 12.7593 9.00485 12.4843 8.78906C12.1944 8.56099 12.0451 8.26869 11.9569 8.00391C11.827 7.93345 11.6912 7.86308 11.5702 7.74609C11.1437 7.53584 10.9146 7.18737 10.7733 6.84375C10.5349 6.77561 10.2778 6.66781 10.0468 6.45703C9.90255 6.32495 9.8034 6.17064 9.71863 6.02344C9.44459 5.87105 9.18543 5.66088 8.99207 5.35547C8.97861 5.33446 8.96699 5.31784 8.95691 5.30859C8.79826 5.16278 8.68438 5.00196 8.59363 4.83984C8.38983 4.75123 8.17549 4.62957 7.99597 4.41797C7.80788 4.19609 7.7085 3.95983 7.65613 3.75C7.64095 3.74471 7.62444 3.74396 7.60925 3.73828C7.41568 3.81524 7.20005 3.88586 6.953 3.89062C6.75613 3.89394 6.57959 3.86323 6.42566 3.82031C6.40165 3.84118 6.36803 3.84807 6.34363 3.86719C6.33378 3.98217 6.3107 4.08838 6.28503 4.19531L6.75378 4.44141L7.11707 4.85156C7.24766 5.04609 7.31118 5.25393 7.36316 5.44922C7.51983 5.46123 7.69505 5.49004 7.87878 5.56641C8.31358 5.74806 8.58359 6.09391 8.73425 6.46875L9.15613 6.59766L9.66003 6.9375C9.95082 7.21565 10.1098 7.5602 10.1874 7.88672C10.3031 7.94973 10.4404 8.0048 10.5507 8.10938C10.7319 8.28251 10.8484 8.4756 10.9257 8.66016C11.1595 8.72237 11.4226 8.83392 11.6522 9.04688C11.7929 9.17793 11.9003 9.32259 11.9803 9.46875L12.1444 9.89062L12.1913 10.043C12.2415 10.142 12.2631 10.248 12.2968 10.3477C12.3294 10.3682 12.3582 10.3944 12.3905 10.418C12.452 10.414 12.514 10.4042 12.578 10.4062C12.8102 10.4144 13.1303 10.4679 13.4452 10.6641C13.7802 10.8736 14.0047 11.1766 14.1249 11.4961C14.1632 11.5983 14.1502 11.7113 14.1718 11.8125C14.4137 11.8955 14.7171 12.0527 14.9452 12.3984C15.4188 13.1175 15.0911 13.8095 15.0272 13.9336C14.9263 14.1288 14.8031 14.2606 14.7577 14.3086C14.7077 14.3614 14.6565 14.4029 14.6171 14.4375C14.6174 14.6333 14.6069 14.8876 14.4882 15.1523C14.2887 15.5971 13.911 15.9074 13.4803 16.043C13.4022 16.0674 13.3194 16.0659 13.246 16.0781V16.1133C13.1859 16.356 13.0448 16.6123 12.8241 16.8516C12.751 17.2303 12.5985 17.6563 12.1796 17.9883C11.6972 18.369 11.1458 18.4527 10.7264 18.4453C10.7114 18.4513 10.6946 18.4514 10.6796 18.457C10.6651 18.6181 10.6446 18.7848 10.5975 18.9492C10.4593 19.4311 10.1171 19.8642 9.58972 20.0859C9.55035 20.1024 9.49975 20.0962 9.46082 20.1094C9.34701 20.2509 9.20279 20.3745 9.0155 20.4844C8.99266 20.5358 8.98691 20.5964 8.95691 20.6484C8.66183 21.1605 8.23171 21.3498 7.85535 21.4219C7.76836 21.5571 7.68679 21.6949 7.58582 21.8203C7.51373 21.9097 7.44203 22.0055 7.37488 22.1016C7.07173 22.5359 6.66865 22.7257 6.29675 22.8164C6.49371 22.9098 6.69486 23.0425 6.87097 23.25C6.96492 23.3607 7.0361 23.4756 7.09363 23.5898C7.20655 23.514 7.3393 23.4559 7.48035 23.4023L7.96082 23.2852C8.01227 23.2802 8.06327 23.2862 8.11316 23.2852C8.31353 23.124 8.52146 23.0273 8.72253 22.9688C8.82515 22.7477 8.96319 22.5296 9.15613 22.3359L9.4491 22.043L9.78894 21.75C9.94324 21.6468 10.109 21.5831 10.2694 21.5273C10.3031 21.4529 10.345 21.3779 10.3749 21.293L10.8319 20.4492L10.8905 20.3438C11.0421 20.0122 11.2957 19.7878 11.5702 19.6172C11.6561 19.3941 11.8047 19.1625 12.0507 18.9609C12.4012 18.6737 12.7757 18.6052 13.0468 18.5977C13.0742 18.566 13.0998 18.5337 13.1288 18.5039C13.1655 18.2532 13.2726 17.9664 13.4803 17.6953C13.7421 17.3546 14.0718 17.1926 14.371 17.1094C14.5498 16.9213 14.7713 16.7681 15.0155 16.6523L15.5428 16.4883C15.5745 16.3416 15.6901 15.9257 16.1053 15.6094C16.7074 15.152 17.3572 15.298 17.6522 15.4336C17.7389 15.4736 17.7994 15.542 17.8632 15.5859C17.9721 15.5865 18.0855 15.5754 18.203 15.5977C18.4644 15.6474 18.7664 15.7648 19.035 16.0078C19.1718 16.1317 19.2816 16.2661 19.3632 16.4062L19.5389 16.8164L19.5507 16.9453C19.8098 17.0299 20.0822 17.1728 20.3124 17.4609C20.6101 17.8343 20.671 18.2382 20.6757 18.4922L20.6639 18.5156C21.0119 18.5456 21.4548 18.6519 21.8124 19.0664C21.8524 19.1128 21.8731 19.1714 21.9061 19.2188C22.1407 19.259 22.4193 19.3499 22.6796 19.5586C23.0217 19.8336 23.1961 20.1871 23.2655 20.4961C23.317 20.7267 23.3 20.9477 23.2772 21.1406C23.3036 21.182 23.337 21.2161 23.3593 21.2578C23.5329 21.2324 23.7278 21.2154 23.9335 21.2461C24.2102 21.2882 24.5532 21.4154 24.8475 21.6914C24.9959 21.831 25.1075 21.9826 25.1874 22.1367L25.3397 22.582L25.3514 22.6992C25.3981 22.7097 25.4459 22.7228 25.4921 22.7344C25.8096 22.8146 26.1261 22.9853 26.371 23.2734C26.4551 23.3728 26.5048 23.4886 26.5585 23.5898C26.575 23.5938 26.5888 23.6088 26.6053 23.6133C26.7174 23.4496 26.8752 23.2919 27.0858 23.1562L27.3319 22.9688C27.2386 22.8478 27.127 22.7255 27.0624 22.5586C27.0208 22.4504 26.9738 22.3306 26.9218 22.207C26.7047 22.0999 26.4807 21.9546 26.3007 21.7031C26.122 21.4516 26.031 21.1865 25.996 20.9531C25.9064 20.8664 25.8029 20.7897 25.7264 20.6836C25.6289 20.5477 25.5494 20.3959 25.4686 20.25C25.3037 20.2074 25.1354 20.1686 24.9764 20.1094C24.6743 19.9962 24.4093 19.7939 24.1913 19.5234C24.1757 19.5222 24.1599 19.5249 24.1444 19.5234C23.6711 19.4795 23.1066 19.2844 22.6913 18.7852C22.3871 18.4178 22.2844 18.0057 22.246 17.6484C22.0066 17.4667 21.8063 17.218 21.6835 16.9102C21.6624 16.8568 21.6636 16.7985 21.6483 16.7461C21.6163 16.7199 21.5741 16.7054 21.5428 16.6758C21.4582 16.5955 21.3932 16.5037 21.3319 16.418C21.0639 16.4002 20.7007 16.3448 20.371 16.0664C19.9554 15.7152 19.849 15.2622 19.8202 14.9531C19.6802 14.8711 19.523 14.7901 19.3983 14.6367C19.0815 14.2468 19.0506 13.8302 19.0585 13.6289C19.0666 13.4216 19.1148 13.2576 19.1405 13.1836C19.1553 13.1412 19.1717 13.1017 19.1874 13.0664C19.1406 12.6762 19.144 12.1275 19.4686 11.6133L19.8553 11.1797C20.1424 10.9573 20.4671 10.9047 20.7343 10.875C20.8573 10.6562 21.0269 10.4716 21.2499 10.3242C21.2937 10.1875 21.3658 10.0451 21.4608 9.90234C21.5833 9.71913 21.7397 9.57181 21.9061 9.45703C22.1752 9.06109 22.5898 8.8247 23.0194 8.74219C23.0787 8.73084 23.1379 8.73592 23.1952 8.73047C23.2976 8.63009 23.3945 8.53202 23.5116 8.46094C23.5921 8.19683 23.7258 7.90798 23.9803 7.66406C24.3322 7.32773 24.7476 7.1955 25.0819 7.16016C25.1804 7.1499 25.275 7.12847 25.3632 7.11328C25.4155 7.0714 25.4607 7.0213 25.5155 6.98438C25.5667 6.83368 25.634 6.68514 25.7147 6.53906L26.1366 5.98828C26.2063 5.92291 26.2931 5.88016 26.371 5.82422C26.4029 5.75418 26.4286 5.68153 26.4647 5.61328C26.4653 5.33568 26.5134 4.93671 26.7694 4.55859C26.8758 4.40195 27.0011 4.27489 27.1327 4.17188C27.0121 4.06435 26.8918 3.94081 26.7928 3.78516C26.6795 3.60667 26.6209 3.41468 26.5702 3.23438C26.5109 3.21721 26.4628 3.17409 26.4061 3.15234C26.388 3.16605 26.3662 3.17422 26.3475 3.1875ZM5.55847 22.875C5.53448 22.8731 5.51003 22.8891 5.48816 22.8867C5.49728 22.8869 5.51792 22.8912 5.54675 22.8867L5.55847 22.875ZM5.453 22.1484C5.50618 22.1779 5.55449 22.2365 5.61707 22.2773C5.52866 22.1952 5.45948 22.152 5.453 22.1484ZM7.1405 21.4453C7.14509 21.4461 7.18131 21.4568 7.23425 21.457C7.2657 21.4571 7.30889 21.4414 7.36316 21.4336C7.2731 21.428 7.19261 21.4548 7.1405 21.4453ZM15.0272 20.7539C15.077 20.7335 15.1409 20.6985 15.203 20.6484C15.2159 20.6381 15.2145 20.6126 15.2264 20.6016C15.1567 20.6421 15.104 20.7224 15.0272 20.7539ZM6.203 19.9688L6.21472 20.0039C6.20502 19.9723 6.20107 19.9355 6.19128 19.8984C6.19448 19.9268 6.2001 19.954 6.203 19.9688ZM8.12488 17.7422C8.20422 17.7567 8.27833 17.7495 8.33582 17.7656C8.31818 17.7609 8.24816 17.7444 8.14832 17.7422H8.12488ZM24.3202 17.4258L24.4374 17.332H24.3319L24.3202 17.4258ZM24.4374 17.332L24.3202 17.4258L24.3319 17.332H24.4374ZM25.2108 17.3672V17.332L25.1991 17.3086C25.1988 17.3283 25.2114 17.3479 25.2108 17.3672ZM24.5428 16.2891C24.5456 16.2661 24.5561 16.2225 24.5546 16.1719L24.5428 16.1484C24.5371 16.2009 24.5496 16.2494 24.5428 16.2891ZM22.7616 15.0586C22.7648 15.0481 22.7784 15.0234 22.785 14.9883C22.7868 14.9787 22.7831 14.9663 22.785 14.9531C22.7742 14.9906 22.7717 15.0275 22.7616 15.0586ZM11.3007 14.4492C11.1815 14.4757 11.0425 14.5252 10.9022 14.6133C11.0357 14.5479 11.1627 14.4798 11.3007 14.4492ZM21.8007 14.5078C21.8088 14.4968 21.8363 14.4755 21.8593 14.4375C21.8685 14.4222 21.894 14.365 21.9296 14.2852C21.8878 14.3575 21.8555 14.4373 21.8007 14.5078ZM23.0428 14.2031C23.0701 14.2063 23.0966 14.2103 23.1249 14.2148C23.1005 14.2071 23.0775 14.1972 23.0546 14.1914L23.0428 14.2031ZM21.1796 13.4766C21.1634 13.4808 21.1517 13.4858 21.1444 13.4883L21.1327 13.5C21.1819 13.4807 21.241 13.4723 21.2968 13.4531C21.2424 13.4602 21.202 13.4706 21.1796 13.4766ZM19.8319 12.3867C19.7901 12.4112 19.7625 12.4361 19.7499 12.4453C19.8056 12.4028 19.9049 12.3643 20.0194 12.3047C19.921 12.3441 19.8481 12.3773 19.8319 12.3867ZM13.0819 11.8008H13.0936C13.0885 11.7379 13.0814 11.6631 13.0585 11.5781C13.0703 11.6591 13.0797 11.7315 13.0819 11.8008ZM18.0624 10.7695C18.0632 10.7673 18.0778 10.744 18.0858 10.7109C18.088 10.7016 18.0833 10.6888 18.0858 10.6758C18.0748 10.7069 18.0728 10.7423 18.0624 10.7695ZM22.9843 10.1953C22.9826 10.1947 22.9624 10.1812 22.9257 10.1719C22.914 10.1689 22.8977 10.1639 22.8788 10.1602C22.9154 10.1728 22.9519 10.1828 22.9843 10.1953ZM24.0741 8.8125C24.0691 8.81112 24.054 8.80374 24.0389 8.80078C24.0247 8.79811 24.0051 8.7917 23.9803 8.78906C24.0135 8.79775 24.0453 8.80399 24.0741 8.8125ZM20.3944 8.77734C20.4169 8.69311 20.4262 8.62273 20.4296 8.56641H20.4178C20.4187 8.63084 20.402 8.69882 20.3944 8.77734ZM27.9999 8.30859C28.0591 8.28001 28.1249 8.2379 28.1874 8.17969C28.1968 8.17084 28.2021 8.15357 28.2108 8.14453C28.1372 8.192 28.0813 8.26959 27.9999 8.30859ZM18.0155 7.62891C17.9786 7.77616 17.9782 7.88665 17.9803 7.92188C17.9754 7.8415 18.0055 7.74267 18.0155 7.62891ZM8.81628 7.73438C8.80007 7.73759 8.78708 7.74445 8.78113 7.74609C8.82489 7.73296 8.87848 7.73542 8.93347 7.72266H8.92175C8.87459 7.72571 8.83825 7.7301 8.81628 7.73438ZM10.0819 6.17578L10.3866 6.26953L10.035 6.12891C10.0538 6.13987 10.0634 6.16629 10.0819 6.17578ZM22.1171 4.73438C22.1091 4.7315 22.084 4.71954 22.0468 4.71094C22.0342 4.70808 22.0188 4.70251 21.9999 4.69922C22.0393 4.71255 22.0796 4.72052 22.1171 4.73438ZM11.3241 3.80859C11.3248 3.79813 11.3343 3.71735 11.3007 3.59766L11.2889 3.57422C11.2942 3.66452 11.3286 3.74277 11.3241 3.80859ZM25.8202 3.49219C25.9137 3.45616 26.0022 3.39692 26.0897 3.32812C25.9989 3.37747 25.9207 3.4537 25.8202 3.49219ZM3.4491 5.42578L3.49597 5.54297L3.46082 5.46094C3.45856 5.44857 3.45109 5.43815 3.4491 5.42578Z" fill="white"/>
</g>
<defs>
<filter id="filter0_dd_31_39" x="-1.80396" y="0" width="37" height="37.4287" filterUnits="userSpaceOnUse" color-interpolation-filters="sRGB">
<feFlood flood-opacity="0" result="BackgroundImageFix"/>
<feColorMatrix in="SourceAlpha" type="matrix" values="0 0 0 0 0 0 0 0 0 0 0 0 0 0 0 0 0 0 127 0" result="hardAlpha"/>
<feMorphology radius="1" operator="erode" in="SourceAlpha" result="effect1_dropShadow_31_39"/>
<feOffset dy="4"/>
<feGaussianBlur stdDeviation="2"/>
<feComposite in2="hardAlpha" operator="out"/>
<feColorMatrix type="matrix" values="0 0 0 0 0.0470588 0 0 0 0 0.0470588 0 0 0 0 0.0509804 0 0 0 0.05 0"/>
<feBlend mode="normal" in2="BackgroundImageFix" result="effect1_dropShadow_31_39"/>
<feColorMatrix in="SourceAlpha" type="matrix" values="0 0 0 0 0 0 0 0 0 0 0 0 0 0 0 0 0 0 127 0" result="hardAlpha"/>
<feMorphology radius="1" operator="erode" in="SourceAlpha" result="effect2_dropShadow_31_39"/>
<feOffset dy="4"/>
<feGaussianBlur stdDeviation="2"/>
<feComposite in2="hardAlpha" operator="out"/>
<feColorMatrix type="matrix" values="0 0 0 0 0.0470588 0 0 0 0 0.0470588 0 0 0 0 0.0509804 0 0 0 0.1 0"/>
<feBlend mode="normal" in2="effect1_dropShadow_31_39" result="effect2_dropShadow_31_39"/>
<feBlend mode="normal" in="SourceGraphic" in2="effect2_dropShadow_31_39" result="shape"/>
</filter>
</defs>
</svg>
