<svg width="394" height="66" viewBox="0 0 394 66" fill="none" xmlns="http://www.w3.org/2000/svg">
<path d="M35.04 49.536C35.104 49.984 35.072 50.496 34.944 51.072C34.88 51.584 34.848 52.096 34.848 52.608C34.848 53.056 34.816 53.536 34.752 54.048C34.688 54.56 34.592 55.072 34.464 55.584C34.272 56.032 34.208 56.512 34.272 57.024C34.336 57.472 34.336 57.952 34.272 58.464C34.144 58.72 33.984 59.008 33.792 59.328C33.664 59.648 33.504 59.968 33.312 60.288C33.248 60.544 33.152 60.832 33.024 61.152C32.896 61.408 32.768 61.696 32.64 62.016C32.192 62.208 31.744 62.4 31.296 62.592C30.912 62.848 30.528 63.04 30.144 63.168C29.312 63.36 28.416 63.392 27.456 63.264C26.56 63.136 25.664 63.2 24.768 63.456C24.64 63.52 24.48 63.584 24.288 63.648C24.16 63.712 23.968 63.808 23.712 63.936C23.456 64 23.136 64.064 22.752 64.128C22.432 64.192 22.112 64.256 21.792 64.32C21.536 64.32 21.28 64.32 21.024 64.32C20.832 64.32 20.672 64.288 20.544 64.224C20.16 64.032 19.776 63.936 19.392 63.936C19.072 63.936 18.752 64 18.432 64.128C18.176 64.128 17.92 64.096 17.664 64.032C17.408 63.968 17.12 63.904 16.8 63.84C16.48 64.16 16.064 64.416 15.552 64.608C15.04 64.8 14.496 64.832 13.92 64.704C13.344 64.64 12.832 64.768 12.384 65.088C12 64.896 11.648 64.736 11.328 64.608C11.072 64.48 10.784 64.384 10.464 64.32C10.016 64.256 9.56798 64.288 9.11998 64.416C8.73598 64.544 8.28798 64.576 7.77598 64.512C7.26398 64.384 6.75198 64.384 6.23998 64.512C5.79198 64.64 5.31198 64.704 4.79998 64.704C4.28798 64.64 3.80798 64.608 3.35998 64.608C2.91198 64.672 2.49598 64.768 2.11198 64.896C2.04798 64.704 1.95198 64.544 1.82398 64.416C1.69598 64.352 1.63198 64.288 1.63198 64.224C1.18398 62.24 0.959982 60.096 0.959982 57.792C1.08798 57.152 1.11998 56.544 1.05598 55.968C0.991982 55.328 0.959982 54.656 0.959982 53.952C0.511982 52.672 0.223982 51.392 0.0959817 50.112C0.0319816 48.832 0.0319816 47.52 0.0959817 46.176C0.159982 44.896 0.223982 43.584 0.287982 42.24C0.351982 40.896 0.415982 39.52 0.479982 38.112C0.479982 37.6 0.511982 37.056 0.575982 36.48C0.639982 35.904 0.735982 35.36 0.863981 34.848C1.11998 34.208 1.27998 33.568 1.34398 32.928C1.40798 32.224 1.43998 31.52 1.43998 30.816C1.43998 30.24 1.43998 29.664 1.43998 29.088C1.43998 28.448 1.40798 27.808 1.34398 27.168C1.34398 26.912 1.34398 26.624 1.34398 26.304C1.34398 25.984 1.31198 25.664 1.24798 25.344C1.11998 24.832 1.02398 24.32 0.959982 23.808C0.895982 23.296 0.863981 22.816 0.863981 22.368C0.927982 22.048 0.927982 21.728 0.863981 21.408C0.863981 21.088 0.831982 20.768 0.767982 20.448C0.703982 20.192 0.703982 19.904 0.767982 19.584C0.831982 19.264 0.831982 18.976 0.767982 18.72C0.703982 18.272 0.671982 17.856 0.671982 17.472C0.671982 17.088 0.735982 16.704 0.863981 16.32C0.927982 15.936 0.895982 15.52 0.767982 15.072C0.703982 14.56 0.639982 14.048 0.575982 13.536C0.575982 12.96 0.639982 12.448 0.767982 12C0.959982 11.232 1.08798 10.464 1.15198 9.696C1.21598 8.86401 1.27998 8.12801 1.34398 7.488C1.47198 6.97601 1.66398 6.59201 1.91998 6.33601C2.23998 6.01601 2.36798 5.66401 2.30398 5.28C2.23998 4.896 2.39998 4.64001 2.78398 4.51201C3.16798 4.32001 3.19998 4.00001 2.87998 3.55201C3.32798 3.55201 3.58398 3.58401 3.64798 3.64801C4.86398 4.16 5.91998 4.224 6.81598 3.84C7.19998 3.904 7.58398 3.968 7.96798 4.03201C8.35198 4.09601 8.70398 4.12801 9.02398 4.12801C9.34398 4.19201 9.69598 4.19201 10.08 4.12801C10.464 4.06401 10.816 4.00001 11.136 3.936C11.904 3.74401 12.64 3.58401 13.344 3.456C14.112 3.26401 14.88 3.16801 15.648 3.16801C16.352 3.04 16.992 3.04 17.568 3.16801C17.76 3.16801 18.048 3.29601 18.432 3.55201C18.368 3.808 18.304 4.064 18.24 4.32C18.24 4.576 18.208 4.832 18.144 5.08801C18.208 5.408 18.272 5.76 18.336 6.144C18.464 6.464 18.528 6.816 18.528 7.20001C18.592 7.52001 18.688 7.87201 18.816 8.256C19.008 8.576 19.168 8.92801 19.296 9.31201C19.104 9.69601 18.912 10.144 18.72 10.656C18.528 11.104 18.336 11.552 18.144 12C18.272 12.256 18.368 12.512 18.432 12.768C18.496 12.96 18.56 13.184 18.624 13.44C18.368 14.592 18.112 15.744 17.856 16.896C17.664 18.048 17.536 19.232 17.472 20.448C17.408 20.768 17.312 21.12 17.184 21.504C17.12 21.824 17.024 22.208 16.896 22.656C17.024 22.912 17.152 23.2 17.28 23.52C17.408 23.776 17.504 24.064 17.568 24.384L17.184 26.304C17.184 26.56 17.184 26.848 17.184 27.168C17.184 27.424 17.12 27.648 16.992 27.84C16.8 28.288 16.672 28.736 16.608 29.184C16.608 29.632 16.544 30.112 16.416 30.624C16.416 31.456 16.384 32.32 16.32 33.216C16.256 34.048 16.256 34.912 16.32 35.808C16.32 36.384 16.224 36.928 16.032 37.44C15.904 37.888 15.776 38.432 15.648 39.072C15.776 39.328 15.872 39.584 15.936 39.84C16 40.096 16.064 40.384 16.128 40.704C16.064 41.024 15.968 41.376 15.84 41.76C15.776 42.08 15.68 42.432 15.552 42.816C15.744 43.264 15.936 43.712 16.128 44.16C16.32 44.608 16.512 45.088 16.704 45.6C16.832 45.856 16.928 46.112 16.992 46.368C17.056 46.56 17.12 46.784 17.184 47.04C17.376 47.552 17.568 47.872 17.76 48C18.016 48.128 18.368 48.16 18.816 48.096C19.712 47.84 20.64 47.648 21.6 47.52C22.56 47.392 23.52 47.232 24.48 47.04C24.672 46.976 24.992 46.944 25.44 46.944C26.016 46.944 26.592 46.88 27.168 46.752C27.808 46.624 28.384 46.4 28.896 46.08C30.048 45.376 31.232 45.12 32.448 45.312C32.768 45.376 33.088 45.376 33.408 45.312C33.728 45.248 34.048 45.28 34.368 45.408C34.432 45.472 34.496 45.6 34.56 45.792C34.624 45.92 34.656 46.048 34.656 46.176C34.848 46.752 34.944 47.328 34.944 47.904C35.008 48.416 35.04 48.96 35.04 49.536ZM84.5122 28.32C84.4482 28.96 84.3842 29.632 84.3202 30.336C84.3202 30.976 84.2562 31.616 84.1282 32.256C84.0642 32.896 84.0322 33.6 84.0322 34.368C84.0322 35.072 83.9042 35.808 83.6482 36.576C83.5202 36.768 83.3602 36.992 83.1682 37.248C82.9762 37.44 82.7842 37.696 82.5922 38.016C82.5922 38.272 82.5922 38.496 82.5922 38.688C82.6562 38.88 82.7202 39.104 82.7842 39.36C82.6562 39.68 82.4642 39.968 82.2082 40.224C81.9522 40.416 81.6962 40.576 81.4402 40.704C80.8002 40.896 80.1922 41.088 79.6162 41.28C79.1042 41.472 78.5602 41.632 77.9842 41.76C77.0882 41.888 76.1602 41.92 75.2002 41.856C74.2402 41.728 73.2802 41.696 72.3202 41.76C71.4882 41.76 70.5922 41.792 69.6322 41.856C68.7362 41.856 67.8082 41.856 66.8482 41.856H61.4722C61.2162 42.048 60.9282 42.112 60.6082 42.048C60.3522 41.984 60.0962 42.016 59.8402 42.144C59.5842 42.016 59.2962 42.016 58.9762 42.144C58.6562 42.208 58.3362 42.176 58.0162 42.048C57.7602 42.112 57.5042 42.176 57.2482 42.24C57.0562 42.24 56.8002 42.272 56.4802 42.336C56.2242 42.272 56.0002 42.208 55.8082 42.144C55.6162 42.016 55.3922 42.048 55.1362 42.24C55.2642 42.432 55.3922 42.656 55.5202 42.912C55.7122 43.104 55.8402 43.36 55.9042 43.68C56.0962 43.936 56.2562 44.192 56.3842 44.448C56.5122 44.704 56.6402 44.992 56.7682 45.312C56.8962 45.568 56.9922 45.856 57.0562 46.176C57.1202 46.432 57.1842 46.688 57.2482 46.944C57.5682 47.264 57.9202 47.584 58.3042 47.904C58.6882 48.224 59.0722 48.544 59.4562 48.864C59.7762 48.928 60.0962 48.992 60.4162 49.056C60.8002 49.12 61.1522 49.184 61.4722 49.248C61.8562 49.312 62.2402 49.376 62.6242 49.44C63.0082 49.504 63.4242 49.504 63.8722 49.44C64.3202 49.312 64.7362 49.344 65.1202 49.536C65.5042 49.664 65.9202 49.76 66.3682 49.824C66.9442 49.76 67.5202 49.696 68.0962 49.632C68.7362 49.568 69.3442 49.504 69.9202 49.44C70.1762 49.248 70.4322 49.088 70.6882 48.96C71.0082 48.768 71.2962 48.576 71.5522 48.384C72.3842 48.192 73.2162 48.224 74.0482 48.48C74.2402 48.8 74.4642 49.12 74.7202 49.44C75.0402 49.76 75.3282 50.112 75.5842 50.496C75.9682 51.072 76.3522 51.648 76.7362 52.224C77.1202 52.736 77.3762 53.344 77.5042 54.048C77.6322 54.368 77.8242 54.688 78.0802 55.008C78.3362 55.328 78.5282 55.616 78.6562 55.872C78.7202 56.192 78.6882 56.48 78.5602 56.736C78.4962 56.992 78.4322 57.28 78.3682 57.6C78.1122 57.856 77.7922 58.08 77.4082 58.272C77.3442 58.272 77.2802 58.336 77.2162 58.464C77.1522 58.592 77.0562 58.688 76.9282 58.752C76.5442 59.008 76.1602 59.264 75.7762 59.52C75.3922 59.776 75.0402 60.032 74.7202 60.288C73.8242 61.056 72.8962 61.44 71.9362 61.44C71.5522 61.44 71.2642 61.472 71.0722 61.536C70.7522 61.6 70.4322 61.728 70.1122 61.92C69.7922 62.112 69.4402 62.272 69.0562 62.4C68.7362 62.4 68.4162 62.432 68.0962 62.496C67.7762 62.624 67.4562 62.72 67.1362 62.784C66.9442 62.784 66.7202 62.752 66.4642 62.688C66.2082 62.688 65.9522 62.688 65.6962 62.688C65.1202 62.752 64.5442 62.72 63.9682 62.592C63.3922 62.464 62.8162 62.4 62.2402 62.4C62.0482 62.336 61.8562 62.272 61.6642 62.208C61.4722 62.144 61.2802 62.112 61.0882 62.112C60.0002 62.176 58.9762 62.016 58.0162 61.632C57.0562 61.184 56.0962 60.736 55.1362 60.288C54.3682 60.096 53.8242 59.744 53.5042 59.232C53.0562 58.72 52.5442 58.304 51.9682 57.984C51.4562 57.6 50.8802 57.28 50.2402 57.024C49.8562 56.896 49.4722 56.736 49.0882 56.544C48.7042 56.288 48.2882 56.032 47.8402 55.776C47.7762 55.52 47.6802 55.264 47.5522 55.008C47.4242 54.752 47.2962 54.496 47.1682 54.24C47.0402 54.048 46.8482 53.856 46.5922 53.664C46.4002 53.472 46.2082 53.28 46.0162 53.088C45.8242 52.896 45.6642 52.672 45.5362 52.416C45.2162 51.328 44.8962 50.272 44.5762 49.248C44.2562 48.16 43.8402 47.104 43.3282 46.08C43.3922 45.632 43.4242 45.184 43.4242 44.736C43.4882 44.224 43.4562 43.68 43.3282 43.104C43.2642 42.976 43.2322 42.816 43.2322 42.624C43.2322 42.432 43.2322 42.272 43.2322 42.144C43.2322 41.824 43.2322 41.568 43.2322 41.376C43.2962 41.12 43.2962 40.896 43.2322 40.704C43.1682 40.192 43.1042 39.68 43.0402 39.168C42.9762 38.656 43.0082 38.176 43.1362 37.728C43.2642 37.216 43.3922 36.704 43.5202 36.192C43.6482 35.68 43.8082 35.136 44.0002 34.56C43.9362 34.432 43.9042 34.24 43.9042 33.984C43.9042 33.728 43.8722 33.472 43.8082 33.216C43.9362 32.512 44.0642 31.808 44.1922 31.104C44.3202 30.4 44.4802 29.728 44.6722 29.088C44.8642 28.704 45.0562 28.352 45.2482 28.032C45.5042 27.648 45.7602 27.264 46.0162 26.88C46.4642 26.112 46.8162 25.376 47.0722 24.672C47.8402 24.288 48.2882 24.064 48.4162 24C48.6082 23.872 48.7682 23.712 48.8962 23.52C49.0242 23.328 49.4402 22.944 50.1442 22.368C50.0802 22.176 50.2402 21.888 50.6242 21.504C51.0082 21.12 51.1362 20.8 51.0082 20.544C51.5842 19.456 52.4162 18.592 53.5042 17.952C53.8882 17.696 54.2402 17.44 54.5602 17.184C54.9442 16.864 55.2642 16.576 55.5202 16.32C55.8402 16.128 56.1282 16.064 56.3842 16.128C56.7042 16.128 56.9922 16.128 57.2482 16.128C57.4402 16.064 57.6322 16.032 57.8242 16.032C58.0802 15.968 58.3362 15.904 58.5922 15.84C58.7202 15.776 58.8802 15.712 59.0722 15.648C59.2642 15.584 59.4242 15.488 59.5522 15.36C59.6802 15.296 59.8082 15.232 59.9362 15.168C60.0642 15.104 60.1922 15.072 60.3202 15.072C60.8962 15.008 61.4402 14.848 61.9522 14.592C62.4642 14.336 62.9442 14.08 63.3922 13.824C64.3522 14.208 65.3442 14.336 66.3682 14.208C67.0082 14.144 67.6162 14.176 68.1922 14.304C68.8322 14.432 69.4082 14.592 69.9202 14.784L71.2642 14.4C71.7762 14.464 72.2562 14.624 72.7042 14.88C73.1522 15.136 73.6002 15.392 74.0482 15.648H74.9122C74.9762 15.712 75.0402 15.776 75.1042 15.84C75.1682 15.84 75.2322 15.872 75.2962 15.936C76.0002 16.576 76.6722 17.184 77.3122 17.76C77.9522 18.272 78.6242 18.816 79.3282 19.392C80.2882 20.032 80.8962 20.8 81.1522 21.696C81.4082 22.08 81.6322 22.368 81.8242 22.56C82.5922 23.2 83.2642 24.064 83.8402 25.152C83.8402 25.28 83.8402 25.472 83.8402 25.728C83.9042 25.92 83.9362 26.112 83.9362 26.304C83.8722 26.624 83.9362 26.944 84.1282 27.264C84.3202 27.584 84.4482 27.936 84.5122 28.32ZM72.3202 31.488V29.088C72.3202 28.768 72.2882 28.576 72.2242 28.512C72.1602 28.32 72.0642 28.128 71.9362 27.936C71.8722 27.744 71.8082 27.616 71.7442 27.552V25.92L71.4562 25.632C71.2002 25.632 70.8802 25.568 70.4962 25.44C70.3682 24.864 70.2082 24.416 70.0162 24.096C69.8242 23.84 69.5682 23.68 69.2482 23.616C68.9282 23.552 68.5762 23.456 68.1922 23.328C67.3602 23.584 66.4642 23.808 65.5042 24C64.5442 24.192 63.6162 24.448 62.7202 24.768C62.2722 24.832 61.8562 24.864 61.4722 24.864C61.0882 24.864 60.7042 24.896 60.3202 24.96C59.6802 25.216 59.1042 25.632 58.5922 26.208C58.1442 26.72 57.6962 27.232 57.2482 27.744C56.9922 28.064 56.7682 28.416 56.5762 28.8C56.3842 29.184 56.1602 29.536 55.9042 29.856C55.8402 29.92 55.8082 30.112 55.8082 30.432C56.0002 30.944 56.2882 31.264 56.6722 31.392C57.0562 31.456 57.4402 31.552 57.8242 31.68C58.2082 31.808 58.6242 31.936 59.0722 32.064C59.2642 32 59.4242 31.968 59.5522 31.968C59.7442 31.968 59.9362 31.936 60.1282 31.872C60.8962 31.552 61.5362 31.52 62.0482 31.776C62.5602 31.84 63.0082 31.84 63.3922 31.776C63.8402 31.712 64.2882 31.648 64.7362 31.584C65.1202 31.776 65.5042 31.904 65.8882 31.968C66.3362 32.032 66.7522 32.128 67.1362 32.256C67.9682 32.512 68.7682 32.64 69.5362 32.64C70.3042 32.64 71.0722 32.544 71.8402 32.352C72.1602 32.032 72.3202 31.744 72.3202 31.488ZM138.904 57.504C139.096 57.952 139.16 58.368 139.096 58.752C139.032 59.136 138.904 59.52 138.712 59.904C138.648 59.968 138.52 60.064 138.328 60.192C138.136 60.256 137.976 60.352 137.848 60.48C137.592 60.544 137.368 60.576 137.176 60.576C136.984 60.576 136.76 60.64 136.504 60.768C135.544 60.96 134.968 61.472 134.776 62.304C134.712 62.432 134.584 62.592 134.392 62.784C133.944 62.848 133.624 62.912 133.432 62.976C133.24 63.104 132.856 63.328 132.28 63.648C131.832 63.648 131.384 63.712 130.936 63.84C130.488 63.968 130.072 64.224 129.688 64.608C129.56 64.608 129.464 64.608 129.4 64.608C129.336 64.672 129.24 64.704 129.112 64.704C128.856 64.832 128.568 64.768 128.248 64.512C127.928 64.32 127.768 64.064 127.768 63.744V63.168C127.512 63.04 127.192 63.04 126.808 63.168C126.488 63.296 126.232 63.168 126.04 62.784V61.344C125.848 61.216 125.656 61.12 125.464 61.056C125.336 60.928 125.176 60.832 124.984 60.768C124.728 60.256 124.44 59.712 124.12 59.136C123.8 58.56 123.48 58.048 123.16 57.6C122.904 57.408 122.68 57.344 122.488 57.408C122.296 57.472 122.136 57.568 122.008 57.696C121.88 57.824 121.784 57.984 121.72 58.176C121.656 58.304 121.56 58.432 121.432 58.56C121.304 58.688 121.208 58.848 121.144 59.04C121.08 59.232 120.984 59.392 120.856 59.52C120.024 59.904 119.192 60.256 118.36 60.576C117.528 60.832 116.728 61.056 115.96 61.248C115.512 61.568 115.064 61.856 114.616 62.112C114.168 62.368 113.752 62.624 113.368 62.88C112.984 62.944 112.6 63.04 112.216 63.168C111.832 63.296 111.48 63.392 111.16 63.456C110.776 63.264 110.392 63.2 110.008 63.264C109.688 63.392 109.272 63.52 108.76 63.648C108.184 63.52 107.576 63.36 106.936 63.168C106.296 63.04 105.624 62.912 104.92 62.784C104.728 62.848 104.536 62.88 104.344 62.88C104.152 62.88 103.992 62.912 103.864 62.976C103.608 62.848 103.384 62.72 103.192 62.592C103.064 62.464 102.872 62.368 102.616 62.304C102.296 62.176 102.008 62.176 101.752 62.304C101.496 62.432 101.208 62.56 100.888 62.688C100.568 62.56 100.216 62.464 99.8317 62.4C99.4477 62.4 99.0637 62.368 98.6797 62.304C98.3597 61.984 98.0717 61.696 97.8157 61.44C97.6237 61.184 97.4957 60.864 97.4317 60.48C97.3037 60.352 97.1757 60.256 97.0477 60.192C96.9197 60.064 96.8237 59.968 96.7597 59.904C96.5037 59.008 96.2157 58.24 95.8957 57.6C94.9997 55.68 94.3917 53.568 94.0717 51.264C93.9437 51.136 93.8157 51.008 93.6877 50.88C93.5597 50.688 93.3997 50.496 93.2077 50.304C93.1437 49.728 93.0797 49.184 93.0157 48.672C92.9517 48.096 92.8557 47.488 92.7277 46.848C92.8557 46.464 92.9197 46.112 92.9197 45.792C92.7917 45.152 92.6637 44.576 92.5357 44.064C92.7917 43.296 93.0477 42.528 93.3037 41.76C93.6237 40.992 93.7197 40.192 93.5917 39.36C93.7197 39.104 93.8797 38.88 94.0717 38.688C94.2637 38.432 94.4237 38.208 94.5517 38.016C95.1277 37.376 95.5437 36.64 95.7997 35.808C95.9917 35.104 96.3117 34.496 96.7597 33.984C97.2717 33.472 97.8157 33.056 98.3917 32.736C99.0957 32.416 99.7677 32.096 100.408 31.776C101.112 31.392 101.784 31.072 102.424 30.816C102.552 30.816 102.712 30.848 102.904 30.912C103.16 30.912 103.352 30.88 103.48 30.816C104.632 30.624 105.624 30.56 106.456 30.624C106.84 30.688 107.224 30.688 107.608 30.624C107.992 30.56 108.344 30.528 108.664 30.528L110.68 30.144C111.064 30.208 111.448 30.304 111.832 30.432C112.216 30.56 112.6 30.528 112.984 30.336C113.112 30.336 113.208 30.368 113.272 30.432C113.4 30.432 113.496 30.432 113.56 30.432C113.88 30.56 114.168 30.72 114.424 30.912C114.68 31.04 114.968 31.104 115.288 31.104C115.992 31.232 116.44 31.104 116.632 30.72C116.568 29.632 116.472 28.928 116.344 28.608C116.28 28.288 116.088 27.776 115.768 27.072C115.576 26.688 115.448 26.304 115.384 25.92C115.32 25.472 115.256 25.056 115.192 24.672C115.128 24.416 115.064 24.192 115 24C115 23.744 114.872 23.488 114.616 23.232C113.784 22.976 112.76 22.784 111.544 22.656H110.968C110.392 22.912 109.784 23.04 109.144 23.04C108.504 23.04 107.832 23.104 107.128 23.232C106.68 23.296 106.2 23.424 105.688 23.616C105.24 23.808 104.76 23.968 104.248 24.096C103.736 24.352 103.224 24.224 102.712 23.712C102.52 23.136 102.424 22.56 102.424 21.984C102.488 21.344 102.552 20.704 102.616 20.064C102.488 19.616 102.328 19.104 102.136 18.528C101.944 17.888 101.848 17.152 101.848 16.32L101.944 15.648C101.88 15.52 101.752 15.392 101.56 15.264C101.432 15.136 101.304 15.04 101.176 14.976C100.984 14.784 100.952 14.592 101.08 14.4C101.08 14.208 101.176 14.112 101.368 14.112C101.88 13.984 102.36 13.888 102.808 13.824C103.256 13.76 103.704 13.696 104.152 13.632L105.304 12.48C105.432 12.416 105.592 12.384 105.784 12.384C107.256 12.64 108.312 12.736 108.952 12.672C109.656 12.608 110.712 12.352 112.12 11.904C112.824 11.968 113.496 12.064 114.136 12.192C114.84 12.32 115.544 12.352 116.248 12.288C116.44 12.48 116.632 12.672 116.824 12.864C117.08 12.992 117.336 13.152 117.592 13.344C117.912 13.216 118.232 13.12 118.552 13.056C118.872 12.928 119.16 12.832 119.416 12.768C119.8 13.024 120.216 13.28 120.664 13.536C120.984 13.6 121.24 13.536 121.432 13.344C121.688 13.152 121.944 13.056 122.2 13.056C122.776 13.12 123.224 13.408 123.544 13.92C123.928 14.368 124.344 14.752 124.792 15.072C125.176 15.328 125.528 15.648 125.848 16.032C126.232 16.416 126.616 16.768 127 17.088C127.128 17.28 127.256 17.472 127.384 17.664C127.512 17.856 127.608 18.048 127.672 18.24C127.992 18.496 128.28 18.72 128.536 18.912C128.792 19.04 129.016 19.232 129.208 19.488C129.528 19.744 129.848 19.936 130.168 20.064C130.552 20.192 130.84 20.416 131.032 20.736C131.16 21.056 131.288 21.408 131.416 21.792C131.544 22.112 131.768 22.4 132.088 22.656C132.28 23.296 132.472 23.968 132.664 24.672C132.856 25.312 132.888 25.984 132.76 26.688C132.76 27.008 132.728 27.296 132.664 27.552C132.792 27.872 132.888 28.224 132.952 28.608C133.016 28.992 133.112 29.344 133.24 29.664V30.144C133.24 30.336 133.208 30.56 133.144 30.816C133.144 31.008 133.176 31.168 133.24 31.296C133.368 31.68 133.528 31.968 133.72 32.16C133.72 32.544 133.56 32.896 133.24 33.216C133.112 33.28 132.952 33.344 132.76 33.408C132.568 33.472 132.408 33.568 132.28 33.696C131.512 34.144 131.416 34.72 131.992 35.424C132.056 35.488 132.152 35.616 132.28 35.808C132.472 35.936 132.6 36.096 132.664 36.288C132.728 36.544 132.76 36.832 132.76 37.152C132.76 37.408 132.792 37.696 132.856 38.016C132.6 39.232 132.12 40.384 131.416 41.472C131.608 42.368 131.896 43.232 132.28 44.064C132.728 44.896 133.112 45.76 133.432 46.656C133.752 46.848 134.008 47.04 134.2 47.232C134.392 47.424 134.616 47.584 134.872 47.712C134.936 47.904 134.968 48.032 134.968 48.096C135.032 48.16 135.064 48.256 135.064 48.384C135.064 49.024 135.128 49.664 135.256 50.304C135.448 50.944 135.672 51.552 135.928 52.128C136.184 52.704 136.44 53.248 136.696 53.76C136.952 54.272 137.272 54.784 137.656 55.296C137.976 55.552 138.232 55.904 138.424 56.352C138.616 56.8 138.776 57.184 138.904 57.504ZM117.88 44.544C117.496 43.584 117.016 42.944 116.44 42.624C115.736 42.304 115.288 41.888 115.096 41.376C115.032 41.12 114.904 40.96 114.712 40.896C114.52 40.832 114.328 40.768 114.136 40.704C113.88 40.704 113.56 40.736 113.176 40.8C112.856 40.8 112.536 40.832 112.216 40.896C111.832 40.896 111.448 40.832 111.064 40.704C110.744 40.576 110.424 40.48 110.104 40.416C109.528 40.416 108.984 40.576 108.472 40.896C108.216 41.088 107.992 41.28 107.8 41.472C107.608 41.6 107.416 41.792 107.224 42.048L105.976 44.352C106.104 44.736 106.264 45.088 106.456 45.408C106.648 45.664 106.648 46.048 106.456 46.56C106.584 47.136 106.712 47.744 106.84 48.384C107.032 48.96 107.288 49.536 107.608 50.112C107.736 50.24 107.832 50.304 107.896 50.304C108.6 50.432 109.304 50.496 110.008 50.496C110.712 50.496 111.384 50.464 112.024 50.4C112.28 50.4 112.472 50.368 112.6 50.304C113.304 49.92 114.168 49.568 115.192 49.248C115.576 49.184 115.928 48.896 116.248 48.384C116.504 47.808 116.76 47.2 117.016 46.56C117.272 45.856 117.56 45.184 117.88 44.544ZM97.5277 60.288C97.5277 60.288 97.4957 60.288 97.4317 60.288C97.4317 60.288 97.4317 60.352 97.4317 60.48C97.5597 60.352 97.5917 60.288 97.5277 60.288ZM185.596 35.616C185.532 35.936 185.436 36.256 185.308 36.576C185.244 36.832 185.18 37.184 185.116 37.632C185.116 38.08 185.244 38.464 185.5 38.784C185.308 39.552 184.924 40.096 184.348 40.416C183.9 40.608 183.42 40.768 182.908 40.896C182.46 40.96 181.884 41.216 181.18 41.664C180.924 41.92 180.668 42.24 180.412 42.624C179.964 42.752 179.58 42.848 179.26 42.912C178.94 42.976 178.62 43.072 178.3 43.2C177.34 43.008 176.572 43.136 175.996 43.584C175.74 43.776 175.452 43.872 175.132 43.872C174.876 43.808 174.588 43.84 174.268 43.968C174.204 44.096 174.108 44.256 173.98 44.448C173.916 44.576 173.82 44.768 173.692 45.024C173.436 45.088 173.18 45.152 172.924 45.216C172.668 45.28 172.444 45.344 172.252 45.408C171.932 45.472 171.612 45.472 171.292 45.408C171.036 45.344 170.748 45.376 170.428 45.504C170.3 45.568 170.108 45.6 169.852 45.6C169.596 45.536 169.34 45.536 169.084 45.6C169.02 45.728 168.924 45.888 168.796 46.08C168.732 46.208 168.636 46.336 168.508 46.464C168.572 46.72 168.636 46.976 168.7 47.232C168.764 47.488 168.828 47.776 168.892 48.096C168.956 48.288 168.988 48.512 168.988 48.768C168.988 49.024 169.02 49.28 169.084 49.536C169.596 50.752 169.596 51.968 169.084 53.184C169.212 53.632 169.308 54.08 169.372 54.528C169.5 54.912 169.5 55.328 169.372 55.776C169.308 55.968 169.276 56.16 169.276 56.352C169.34 56.48 169.404 56.64 169.468 56.832C169.596 57.536 169.564 58.176 169.372 58.752C169.308 59.008 169.276 59.264 169.276 59.52C169.34 59.712 169.372 59.904 169.372 60.096C169.436 60.48 169.404 60.864 169.276 61.248C169.212 61.568 169.02 61.888 168.7 62.208C168.124 62.272 167.548 62.304 166.972 62.304C166.396 62.368 165.788 62.496 165.148 62.688C164.892 62.752 164.604 62.784 164.284 62.784C164.028 62.784 163.772 62.816 163.516 62.88C162.812 62.88 162.108 62.976 161.404 63.168C160.892 63.424 160.348 63.392 159.772 63.072C159.516 63.2 159.292 63.328 159.1 63.456C158.972 63.584 158.78 63.712 158.524 63.84C158.268 63.968 157.98 63.936 157.66 63.744C157.404 63.552 157.244 63.36 157.18 63.168C157.116 62.976 157.052 62.752 156.988 62.496C156.924 62.304 156.892 62.112 156.892 61.92C156.892 61.408 156.892 60.896 156.892 60.384C156.892 59.808 156.924 59.264 156.988 58.752C157.116 58.176 157.116 57.6 156.988 57.024C156.924 56.384 156.892 55.808 156.892 55.296C156.892 54.848 156.796 54.528 156.604 54.336C156.348 53.952 156.22 53.536 156.22 53.088C156.22 52.64 156.156 52.192 156.028 51.744C155.964 51.616 155.932 51.488 155.932 51.36C155.996 51.168 156.028 51.04 156.028 50.976C156.156 50.4 156.22 49.856 156.22 49.344C156.22 48.768 156.188 48.192 156.124 47.616C156.124 47.168 155.996 46.848 155.74 46.656C155.676 46.464 155.548 46.336 155.356 46.272C155.164 46.144 155.004 46.048 154.876 45.984C154.428 45.92 154.012 46.016 153.628 46.272C153.308 46.528 152.988 46.688 152.668 46.752C151.836 46.816 151.036 46.752 150.268 46.56C149.5 46.304 148.764 46.208 148.06 46.272C147.804 46.016 147.676 45.888 147.676 45.888L147.388 42.912C147.388 42.336 147.388 41.792 147.388 41.28C147.388 40.768 147.324 40.288 147.196 39.84V39.072C147.324 37.92 147.356 37.184 147.292 36.864C147.292 36.48 147.164 35.84 146.908 34.944C147.1 34.624 147.228 34.464 147.292 34.464C148.124 34.464 148.892 34.336 149.596 34.08C150.364 33.76 151.1 33.472 151.804 33.216C152.06 32.96 152.284 32.8 152.476 32.736C153.372 32.032 154.012 31.584 154.396 31.392C154.844 31.136 155.58 30.848 156.604 30.528C157.308 29.056 157.756 27.552 157.948 26.016C158.14 24.416 158.076 22.816 157.756 21.216C157.82 21.088 157.852 20.96 157.852 20.832C157.916 20.704 157.98 20.576 158.044 20.448C158.748 19.36 159.132 18.24 159.196 17.088C159.26 16.704 159.356 16.32 159.484 15.936C159.612 15.488 159.676 15.04 159.676 14.592C159.612 14.272 159.612 13.92 159.676 13.536C159.74 13.152 159.804 12.736 159.868 12.288C160.06 11.904 160.284 11.488 160.54 11.04C160.86 10.592 161.18 10.144 161.5 9.696C161.628 9.44001 161.66 9.15201 161.596 8.832C161.596 8.512 161.66 8.224 161.788 7.96801C161.98 7.71201 162.14 7.45601 162.268 7.20001C162.396 6.94401 162.556 6.68801 162.748 6.432C162.876 6.30401 163.036 6.17601 163.228 6.048C163.484 5.85601 163.708 5.66401 163.9 5.47201C164.156 5.344 164.348 5.216 164.476 5.08801C164.668 4.896 164.828 4.704 164.956 4.51201C165.276 4.064 165.628 3.712 166.012 3.456C166.46 3.136 166.908 2.816 167.356 2.496H169.468C169.596 2.36801 169.756 2.27201 169.948 2.20801C170.14 2.08001 170.3 1.984 170.428 1.92001C170.62 1.85601 170.844 1.69601 171.1 1.44001C171.548 1.37601 171.996 1.28001 172.444 1.152C172.892 1.02401 173.34 1.05601 173.788 1.248C174.044 1.184 174.268 1.12 174.46 1.05601C174.716 0.992006 174.972 0.928005 175.228 0.864002C176.508 0.288006 177.82 0.192007 179.164 0.576006C179.804 0.832006 180.38 0.832006 180.892 0.576006C181.084 0.768003 181.276 0.960003 181.468 1.152C181.66 1.28001 181.884 1.44001 182.14 1.632C182.396 1.76001 182.652 1.88801 182.908 2.016C183.164 2.14401 183.42 2.30401 183.676 2.496C183.676 2.62401 183.708 2.78401 183.772 2.976C183.836 3.168 183.868 3.36001 183.868 3.55201C183.996 4.128 184.124 4.672 184.252 5.184C184.38 5.696 184.572 6.24001 184.828 6.81601C184.956 7.264 185.02 7.712 185.02 8.16001C185.02 8.544 184.956 8.96 184.828 9.40801C184.764 9.66401 184.668 9.95201 184.54 10.272C184.476 10.528 184.444 10.816 184.444 11.136C184.444 11.328 184.412 11.488 184.348 11.616C183.964 12.064 183.708 12.544 183.58 13.056C183.516 13.568 183.42 14.08 183.292 14.592L183.004 14.88H182.524C181.564 14.176 180.668 13.984 179.836 14.304C179.388 14.368 178.94 14.368 178.492 14.304C177.084 13.92 175.804 14.272 174.652 15.36C174.588 15.424 174.492 15.52 174.364 15.648C174.3 15.776 174.204 15.904 174.076 16.032C174.012 16.416 173.948 16.8 173.884 17.184C173.884 17.568 173.884 17.952 173.884 18.336C173.692 18.592 173.5 18.784 173.308 18.912C173.116 19.04 172.924 19.2 172.732 19.392C172.476 19.584 172.22 19.84 171.964 20.16C171.708 20.544 171.836 20.832 172.348 21.024C172.54 21.088 172.572 21.248 172.444 21.504C172.38 21.76 172.348 22.016 172.348 22.272C172.348 22.592 172.316 22.848 172.252 23.04C172.188 23.168 172.06 23.488 171.868 24C171.868 24 171.836 24.128 171.772 24.384C171.772 24.64 171.74 24.928 171.676 25.248C171.484 25.44 171.324 25.664 171.196 25.92C171.068 26.176 170.94 26.432 170.812 26.688C170.556 27.904 170.78 28.96 171.484 29.856C171.868 29.984 172.188 30.016 172.444 29.952C172.764 29.824 173.084 29.76 173.404 29.76C173.724 29.76 174.012 29.76 174.268 29.76C174.588 29.696 174.876 29.632 175.132 29.568C175.388 29.44 175.644 29.312 175.9 29.184C176.22 29.056 176.508 28.928 176.764 28.8C177.596 28.672 178.396 28.64 179.164 28.704C179.932 28.704 180.7 28.768 181.468 28.896C181.788 28.96 182.076 29.056 182.332 29.184C182.652 29.248 182.844 29.408 182.908 29.664C183.228 29.984 183.548 30.272 183.868 30.528C184.188 30.784 184.508 31.072 184.828 31.392V34.272C185.02 34.784 185.276 35.232 185.596 35.616ZM252.067 15.36C251.747 15.936 251.395 16.48 251.011 16.992C250.691 17.504 250.435 18.048 250.243 18.624C249.987 19.072 249.699 19.584 249.379 20.16C249.059 20.672 248.739 21.184 248.419 21.696C248.355 21.824 248.259 22.016 248.131 22.272C248.067 22.464 247.971 22.688 247.843 22.944C247.459 23.648 247.171 24.384 246.979 25.152C246.851 25.92 246.531 26.656 246.019 27.36C245.443 28 244.963 28.736 244.579 29.568C244.195 30.336 243.747 31.072 243.235 31.776C242.787 32.416 242.339 33.056 241.891 33.696C241.443 34.336 240.963 35.008 240.451 35.712C240.387 35.776 240.323 35.872 240.259 36C240.259 36.064 240.195 36.192 240.067 36.384C239.555 37.792 239.043 39.232 238.531 40.704C238.019 42.176 237.603 43.68 237.283 45.216C237.091 45.856 236.899 46.432 236.707 46.944C236.515 47.456 236.259 47.968 235.939 48.48C235.555 49.12 235.171 49.728 234.787 50.304C234.403 50.88 234.051 51.488 233.731 52.128C233.603 52.448 233.411 52.704 233.155 52.896C232.451 53.664 231.843 54.496 231.331 55.392C230.883 56.288 230.467 57.248 230.083 58.272C229.827 59.04 229.315 59.68 228.547 60.192C228.227 60.448 227.875 60.704 227.491 60.96C227.107 61.216 226.723 61.472 226.339 61.728C226.211 61.664 225.923 61.632 225.475 61.632C225.283 61.568 225.091 61.536 224.899 61.536C224.771 61.536 224.643 61.504 224.515 61.44C224.323 61.504 224.131 61.632 223.939 61.824C223.811 61.952 223.619 62.08 223.363 62.208C222.915 62.144 222.339 61.952 221.635 61.632C221.187 61.696 220.739 61.76 220.291 61.824C219.843 61.888 219.427 61.92 219.043 61.92C218.083 61.984 217.091 62.048 216.067 62.112C215.107 62.176 214.147 62.272 213.187 62.4C212.675 62.528 212.227 62.464 211.843 62.208C211.587 61.824 211.459 61.408 211.459 60.96C211.459 60.448 211.395 59.872 211.267 59.232C211.011 58.784 210.691 58.336 210.307 57.888C209.987 57.44 209.763 56.928 209.635 56.352V55.296C209.571 54.976 209.379 54.688 209.059 54.432C208.739 54.176 208.547 53.856 208.483 53.472C208.419 53.28 208.387 53.088 208.387 52.896C208.387 52.64 208.323 52.384 208.195 52.128C208.131 51.616 208.003 51.136 207.811 50.688C207.683 50.176 207.427 49.696 207.043 49.248C206.339 48.544 205.891 47.68 205.699 46.656C205.635 46.208 205.507 45.76 205.315 45.312C205.187 44.8 205.027 44.32 204.835 43.872C204.387 42.784 203.971 41.696 203.587 40.608C203.267 39.456 202.883 38.304 202.435 37.152C202.179 36.64 201.987 36.128 201.859 35.616C201.795 35.104 201.699 34.592 201.571 34.08C201.443 33.952 201.283 33.824 201.091 33.696C200.963 33.504 200.835 33.28 200.707 33.024C200.771 32.768 200.867 32.48 200.995 32.16C201.123 31.776 201.219 31.424 201.283 31.104C201.155 30.592 200.995 30.176 200.803 29.856C200.611 29.472 200.547 29.024 200.611 28.512C200.355 28.384 200.099 28.256 199.843 28.128C199.651 27.936 199.427 27.808 199.171 27.744C198.147 26.656 197.699 25.344 197.827 23.808C197.699 23.296 197.475 22.912 197.155 22.656C196.899 22.336 196.643 22.048 196.387 21.792C196.195 21.28 196.003 20.768 195.811 20.256C195.619 19.744 195.427 19.264 195.235 18.816C194.979 18.56 194.723 18.336 194.467 18.144C194.211 17.952 193.955 17.728 193.699 17.472C193.379 16.768 193.187 16.096 193.123 15.456C193.123 14.816 193.187 14.144 193.315 13.44C193.443 13.184 193.571 12.928 193.699 12.672C193.827 12.416 193.987 12.224 194.179 12.096C195.075 11.456 195.939 10.784 196.771 10.08C197.603 9.31201 198.467 8.64001 199.363 8.06401C199.875 7.80801 200.355 7.55201 200.803 7.29601C201.251 7.04 201.731 6.88 202.243 6.81601C202.755 6.688 203.203 6.528 203.587 6.33601C203.971 6.144 204.355 5.984 204.739 5.85601C204.995 5.79201 205.251 5.76001 205.507 5.76001C205.827 5.696 206.115 5.632 206.371 5.568C206.499 5.568 206.659 5.6 206.851 5.664C207.043 5.72801 207.139 5.85601 207.139 6.048C207.203 6.56001 207.459 6.97601 207.907 7.29601C208.355 7.55201 208.611 7.93601 208.675 8.44801C208.803 8.76801 208.931 9.08801 209.059 9.40801C209.251 9.66401 209.379 9.92001 209.443 10.176C209.507 10.56 209.603 10.944 209.731 11.328C209.923 11.648 210.083 12 210.211 12.384C210.659 13.216 211.139 14.048 211.651 14.88C212.227 15.712 212.835 16.512 213.475 17.28C213.923 17.792 214.339 18.368 214.723 19.008C215.107 19.648 215.331 20.384 215.395 21.216C215.395 21.472 215.459 21.696 215.587 21.888C215.715 22.016 215.811 22.208 215.875 22.464C216.259 23.488 216.611 24.512 216.931 25.536C217.315 26.496 217.635 27.52 217.891 28.608C217.955 28.928 218.019 29.28 218.083 29.664C218.211 30.048 218.243 30.432 218.179 30.816C218.435 32.096 218.819 33.472 219.331 34.944C219.587 35.328 219.875 35.712 220.195 36.096C220.515 36.416 220.803 36.768 221.059 37.152C221.187 37.152 221.347 37.184 221.539 37.248C221.731 37.248 221.891 37.216 222.019 37.152C222.723 36.96 223.299 36.48 223.747 35.712C223.875 35.456 223.939 35.232 223.939 35.04C224.003 34.848 224.067 34.656 224.131 34.464C224.899 33.568 225.539 32.64 226.051 31.68C226.627 30.72 227.267 29.824 227.971 28.992V27.84C228.227 27.456 228.515 27.072 228.835 26.688C229.155 26.304 229.347 25.888 229.411 25.44C229.539 24.672 229.763 23.968 230.083 23.328C230.467 22.624 230.883 21.984 231.331 21.408C232.163 20 232.963 18.72 233.731 17.568C233.923 17.376 234.083 17.216 234.211 17.088C234.403 16.96 234.531 16.832 234.595 16.704C234.659 16.384 234.659 16.128 234.595 15.936C234.595 15.744 234.691 15.52 234.883 15.264C235.267 14.752 235.523 14.176 235.651 13.536C235.779 12.896 236.035 12.352 236.419 11.904C236.547 10.88 236.835 9.984 237.283 9.216C237.795 8.44801 238.243 7.64801 238.627 6.81601C238.627 6.88 238.691 6.784 238.819 6.528C239.075 6.144 239.491 6.08001 240.067 6.33601C240.323 6.528 240.579 6.72 240.835 6.912C241.091 7.04001 241.379 7.26401 241.699 7.58401C242.019 7.58401 242.339 7.58401 242.659 7.58401C243.043 7.58401 243.427 7.61601 243.811 7.68001C244.195 7.74401 244.579 7.84001 244.963 7.96801C245.411 8.09601 245.827 8.28801 246.211 8.54401C246.723 8.80001 247.203 9.08801 247.651 9.40801C248.163 9.72801 248.643 10.016 249.091 10.272C249.411 10.72 249.699 11.136 249.955 11.52C250.275 11.84 250.563 12.16 250.819 12.48C250.947 12.992 251.075 13.504 251.203 14.016C251.395 14.528 251.683 14.976 252.067 15.36ZM201.859 33.792C201.859 33.792 201.827 33.824 201.763 33.888C201.763 33.952 201.763 34.016 201.763 34.08C201.891 34.016 201.955 33.952 201.955 33.888C202.019 33.824 201.987 33.792 201.859 33.792ZM276.492 10.944C276.684 11.392 276.748 11.872 276.684 12.384C276.62 12.832 276.524 13.28 276.396 13.728C276.332 14.112 276.204 14.496 276.012 14.88C275.82 15.2 275.66 15.52 275.532 15.84C275.276 16.224 274.988 16.576 274.668 16.896C274.412 17.216 274.156 17.536 273.9 17.856C273.708 17.92 273.548 18.048 273.42 18.24C273.292 18.368 273.132 18.496 272.94 18.624C272.492 18.944 271.788 19.264 270.828 19.584C269.868 19.84 269.1 19.968 268.524 19.968C268.204 19.968 267.948 19.904 267.756 19.776C267.372 19.776 266.988 19.776 266.604 19.776C266.22 19.712 265.868 19.68 265.548 19.68C265.356 19.552 265.132 19.424 264.876 19.296C264.684 19.168 264.524 19.04 264.396 18.912C264.076 18.784 263.724 18.72 263.34 18.72C263.02 18.72 262.7 18.72 262.38 18.72C262.124 18.528 261.804 18.368 261.42 18.24C261.1 18.048 260.78 17.888 260.46 17.76L259.884 16.032C259.948 15.52 260.012 14.976 260.076 14.4C260.14 13.76 260.076 13.12 259.884 12.48C259.692 12.352 259.692 12.192 259.884 12C260.076 11.552 260.076 11.104 259.884 10.656C259.692 10.208 259.692 9.76001 259.884 9.31201C259.948 9.18401 259.98 8.992 259.98 8.736C259.788 8.35201 259.788 8.00001 259.98 7.68001C260.172 7.29601 260.332 6.97601 260.46 6.72001C260.396 6.52801 260.364 6.336 260.364 6.144C260.364 5.88801 260.364 5.69601 260.364 5.568C260.428 5.50401 260.46 5.44001 260.46 5.37601C260.524 5.248 260.62 5.152 260.748 5.08801C261.26 4.96001 261.676 4.73601 261.996 4.416C262.38 4.032 262.796 3.74401 263.244 3.55201C263.692 3.168 264.172 2.848 264.684 2.592C265.26 2.33601 265.804 2.08001 266.316 1.82401C266.828 1.82401 267.276 1.82401 267.66 1.82401C268.044 1.82401 268.428 1.88801 268.812 2.016C269.004 2.08 269.228 2.112 269.484 2.112C269.74 2.112 269.996 2.112 270.252 2.112C271.148 1.984 271.852 2.33601 272.364 3.16801C272.492 3.48801 272.716 3.68001 273.036 3.74401C273.356 3.808 273.644 3.90401 273.9 4.03201C274.54 4.60801 274.956 5.34401 275.148 6.24001C275.276 6.62401 275.404 7.00801 275.532 7.392C275.724 7.77601 275.852 8.16001 275.916 8.54401C276.044 8.92801 276.14 9.34401 276.204 9.79201C276.332 10.176 276.428 10.56 276.492 10.944ZM275.916 33.024C275.788 33.408 275.724 33.856 275.724 34.368C275.724 34.816 275.724 35.296 275.724 35.808C275.788 36.256 275.788 36.736 275.724 37.248C275.66 37.696 275.628 38.144 275.628 38.592L274.956 39.552C275.276 39.872 275.468 40.224 275.532 40.608C275.596 40.992 275.628 41.408 275.628 41.856C275.628 42.304 275.628 42.784 275.628 43.296C275.628 43.744 275.596 44.224 275.532 44.736C275.468 45.184 275.34 45.664 275.148 46.176C274.956 46.688 274.796 47.232 274.668 47.808C274.668 48.448 274.636 49.216 274.572 50.112C274.572 50.944 274.604 51.776 274.668 52.608C274.732 53.824 274.668 55.072 274.476 56.352C274.284 57.568 273.9 58.72 273.324 59.808C273.324 60.32 273.388 60.832 273.516 61.344C273.644 61.792 273.772 62.272 273.9 62.784C273.9 62.848 273.868 62.912 273.804 62.976C273.74 63.104 273.708 63.232 273.708 63.36C273.388 63.808 273.004 64.192 272.556 64.512C272.492 64.512 272.428 64.544 272.364 64.608H271.98C271.276 64.608 270.54 64.64 269.772 64.704C269.068 64.832 268.268 64.8 267.372 64.608C267.116 64.48 266.828 64.32 266.508 64.128C266.252 63.936 265.964 63.776 265.644 63.648C265.388 63.648 265.068 63.616 264.684 63.552C264.364 63.552 264.044 63.52 263.724 63.456C263.212 62.88 262.7 62.272 262.188 61.632C261.996 61.504 261.772 61.408 261.516 61.344C261.26 61.28 261.004 61.184 260.748 61.056C260.3 60.736 260.14 60.224 260.268 59.52C260.396 58.816 260.556 58.208 260.748 57.696C260.94 56.864 260.908 56.064 260.652 55.296L260.268 53.952C260.268 53.44 260.236 52.96 260.172 52.512C260.108 52.064 260.108 51.616 260.172 51.168C260.236 50.528 260.236 49.92 260.172 49.344C260.172 48.768 260.172 48.16 260.172 47.52C260.236 46.624 260.268 45.76 260.268 44.928C260.268 44.032 260.268 43.168 260.268 42.336C260.268 42.016 260.3 41.824 260.364 41.76C260.684 41.248 260.844 40.768 260.844 40.32C260.844 39.808 260.844 39.296 260.844 38.784C260.78 38.272 260.78 37.76 260.844 37.248C260.972 36.672 260.972 36.16 260.844 35.712C260.844 35.136 260.844 34.592 260.844 34.08C260.844 33.504 260.876 32.928 260.94 32.352C261.004 32.032 261.036 31.712 261.036 31.392C261.1 31.008 261.068 30.592 260.94 30.144C261.516 29.888 261.996 29.696 262.38 29.568C262.828 29.44 263.244 29.376 263.628 29.376C263.884 29.376 264.14 29.376 264.396 29.376C264.716 29.376 265.004 29.344 265.26 29.28C265.9 29.152 266.444 29.024 266.892 28.896C267.212 28.96 267.468 29.088 267.66 29.28C267.916 29.408 268.172 29.536 268.428 29.664C268.876 29.664 269.324 29.568 269.772 29.376C270.22 29.312 270.604 29.344 270.924 29.472C271.308 29.6 271.596 29.92 271.788 30.432C271.852 30.496 271.884 30.56 271.884 30.624C271.948 30.688 272.012 30.752 272.076 30.816L272.748 31.2C273.196 31.264 273.58 31.2 273.9 31.008C274.22 30.752 274.54 30.592 274.86 30.528C275.244 30.528 275.468 30.688 275.532 31.008C275.724 31.456 275.852 32.128 275.916 33.024ZM310.357 54.432C310.357 55.008 310.101 55.488 309.589 55.872C309.077 56.384 308.949 56.992 309.205 57.696C309.333 58.144 309.397 58.624 309.397 59.136C309.397 59.648 309.397 60.16 309.397 60.672C309.333 60.8 309.237 60.96 309.109 61.152C309.045 61.28 308.949 61.408 308.821 61.536C308.565 61.664 308.405 61.728 308.341 61.728C307.829 61.792 307.317 61.856 306.805 61.92C306.293 61.92 305.781 61.92 305.269 61.92C304.949 61.92 304.789 61.92 304.789 61.92C303.893 61.664 302.997 61.536 302.101 61.536C301.269 61.472 300.437 61.376 299.605 61.248C299.093 61.12 298.613 61.056 298.165 61.056C297.717 61.056 297.269 61.12 296.821 61.248C296.181 60.928 295.541 60.608 294.901 60.288C294.325 59.904 293.685 59.552 292.981 59.232C292.533 58.528 291.957 57.952 291.253 57.504C290.613 56.992 290.037 56.384 289.525 55.68C289.397 55.36 289.237 55.04 289.045 54.72C288.917 54.4 288.757 54.112 288.565 53.856C287.925 52.896 287.509 51.84 287.317 50.688C287.317 50.24 287.157 49.856 286.837 49.536C286.325 48.576 286.197 47.68 286.453 46.848C286.517 46.72 286.517 46.592 286.453 46.464C286.453 46.272 286.485 46.144 286.549 46.08C286.293 45.76 286.101 45.504 285.973 45.312C285.845 45.12 285.717 44.928 285.589 44.736C285.589 44.288 285.621 43.968 285.685 43.776L284.917 42.816C285.045 42.112 285.141 41.408 285.205 40.704C285.333 39.936 285.461 39.232 285.589 38.592L284.917 37.632C284.917 37.376 285.013 37.184 285.205 37.056C285.397 36.864 285.557 36.64 285.685 36.384C285.941 35.68 286.101 35.008 286.165 34.368C286.357 33.6 286.453 32.864 286.453 32.16C286.325 30.752 286.325 29.376 286.453 28.032C286.581 26.688 286.613 25.312 286.549 23.904C286.869 22.496 286.997 21.088 286.933 19.68C286.869 18.272 286.965 16.896 287.221 15.552C287.221 15.232 287.221 15.072 287.221 15.072C287.029 14.304 287.029 13.568 287.221 12.864C287.413 12.16 287.637 11.52 287.893 10.944C287.829 10.816 287.797 10.656 287.797 10.464C287.797 10.272 287.733 10.112 287.605 9.984C287.733 9.53601 287.925 9.18401 288.181 8.92801C288.437 8.60801 288.661 8.32001 288.853 8.06401C288.981 7.80801 289.077 7.55201 289.141 7.29601C289.269 6.97601 289.365 6.68801 289.429 6.432L290.101 5.76001C290.677 5.63201 291.285 5.6 291.925 5.664C292.117 5.72801 292.309 5.82401 292.501 5.95201C292.757 6.08 293.013 6.208 293.269 6.33601C293.717 6.59201 294.133 6.81601 294.517 7.008C294.965 7.13601 295.445 7.16801 295.957 7.10401C296.661 7.36 297.333 7.52 297.973 7.58401C298.677 7.64801 299.349 7.64801 299.989 7.58401H300.373C300.373 7.58401 300.373 7.61601 300.373 7.68001C300.437 7.68001 300.501 7.68001 300.565 7.68001C300.885 7.74401 301.173 7.90401 301.429 8.16001C301.685 8.41601 301.749 8.70401 301.621 9.02401C301.493 9.984 301.397 10.944 301.333 11.904C301.333 12.864 301.269 13.824 301.141 14.784C301.013 15.68 300.885 16.608 300.757 17.568C300.629 18.464 300.469 19.36 300.277 20.256C300.213 21.664 300.085 23.072 299.893 24.48C299.765 25.824 299.701 27.168 299.701 28.512C299.701 28.704 299.701 28.864 299.701 28.992C299.765 29.12 299.797 29.248 299.797 29.376C299.477 30.016 299.221 30.656 299.029 31.296C298.901 31.936 298.741 32.608 298.549 33.312C298.421 33.824 298.421 34.368 298.549 34.944C298.741 35.712 298.805 36.48 298.741 37.248C298.741 38.016 298.677 38.816 298.549 39.648V40.224C298.677 40.48 298.805 40.768 298.933 41.088C299.125 41.408 299.285 41.728 299.413 42.048C299.349 42.24 299.285 42.464 299.221 42.72C299.157 42.912 299.093 43.104 299.029 43.296C299.157 43.616 299.221 43.968 299.221 44.352C299.285 44.736 299.349 45.088 299.413 45.408C299.669 45.728 299.925 46.048 300.181 46.368C300.437 46.624 300.597 46.944 300.661 47.328C300.661 47.456 300.725 47.616 300.853 47.808C300.981 48 301.077 48.16 301.141 48.288C301.269 48.608 301.461 48.864 301.717 49.056C302.037 49.248 302.325 49.408 302.581 49.536C303.029 49.6 303.445 49.696 303.829 49.824C304.213 49.952 304.629 50.08 305.077 50.208C305.333 50.208 305.525 50.208 305.653 50.208C305.845 50.144 306.037 50.112 306.229 50.112C306.357 50.176 306.517 50.24 306.709 50.304C306.965 50.368 307.189 50.432 307.381 50.496C307.445 50.56 307.509 50.656 307.573 50.784C307.637 50.848 307.701 50.912 307.765 50.976C307.893 51.488 308.245 52.032 308.821 52.608C309.141 52.864 309.429 53.152 309.685 53.472C310.005 53.728 310.229 54.048 310.357 54.432ZM344.201 54.432C344.201 55.008 343.945 55.488 343.433 55.872C342.921 56.384 342.793 56.992 343.049 57.696C343.177 58.144 343.241 58.624 343.241 59.136C343.241 59.648 343.241 60.16 343.241 60.672C343.177 60.8 343.081 60.96 342.953 61.152C342.889 61.28 342.793 61.408 342.665 61.536C342.409 61.664 342.249 61.728 342.185 61.728C341.673 61.792 341.161 61.856 340.649 61.92C340.137 61.92 339.625 61.92 339.113 61.92C338.793 61.92 338.633 61.92 338.633 61.92C337.737 61.664 336.841 61.536 335.945 61.536C335.113 61.472 334.281 61.376 333.449 61.248C332.937 61.12 332.457 61.056 332.009 61.056C331.561 61.056 331.113 61.12 330.665 61.248C330.025 60.928 329.385 60.608 328.745 60.288C328.169 59.904 327.529 59.552 326.825 59.232C326.377 58.528 325.801 57.952 325.097 57.504C324.457 56.992 323.881 56.384 323.369 55.68C323.241 55.36 323.081 55.04 322.889 54.72C322.761 54.4 322.601 54.112 322.409 53.856C321.769 52.896 321.353 51.84 321.161 50.688C321.161 50.24 321.001 49.856 320.681 49.536C320.169 48.576 320.041 47.68 320.297 46.848C320.361 46.72 320.361 46.592 320.297 46.464C320.297 46.272 320.329 46.144 320.393 46.08C320.137 45.76 319.945 45.504 319.817 45.312C319.689 45.12 319.561 44.928 319.433 44.736C319.433 44.288 319.465 43.968 319.529 43.776L318.761 42.816C318.889 42.112 318.985 41.408 319.049 40.704C319.177 39.936 319.305 39.232 319.433 38.592L318.761 37.632C318.761 37.376 318.857 37.184 319.049 37.056C319.241 36.864 319.401 36.64 319.529 36.384C319.785 35.68 319.945 35.008 320.009 34.368C320.201 33.6 320.297 32.864 320.297 32.16C320.169 30.752 320.169 29.376 320.297 28.032C320.425 26.688 320.457 25.312 320.393 23.904C320.713 22.496 320.841 21.088 320.777 19.68C320.713 18.272 320.809 16.896 321.065 15.552C321.065 15.232 321.065 15.072 321.065 15.072C320.873 14.304 320.873 13.568 321.065 12.864C321.257 12.16 321.481 11.52 321.737 10.944C321.673 10.816 321.641 10.656 321.641 10.464C321.641 10.272 321.577 10.112 321.449 9.984C321.577 9.53601 321.769 9.18401 322.025 8.92801C322.281 8.60801 322.505 8.32001 322.697 8.06401C322.825 7.80801 322.921 7.55201 322.985 7.29601C323.113 6.97601 323.209 6.68801 323.273 6.432L323.945 5.76001C324.521 5.63201 325.129 5.6 325.769 5.664C325.961 5.72801 326.153 5.82401 326.345 5.95201C326.601 6.08 326.857 6.208 327.113 6.33601C327.561 6.59201 327.977 6.81601 328.361 7.008C328.809 7.13601 329.289 7.16801 329.801 7.10401C330.505 7.36 331.177 7.52 331.817 7.58401C332.521 7.64801 333.193 7.64801 333.833 7.58401H334.217C334.217 7.58401 334.217 7.61601 334.217 7.68001C334.281 7.68001 334.345 7.68001 334.409 7.68001C334.729 7.74401 335.017 7.90401 335.273 8.16001C335.529 8.41601 335.593 8.70401 335.465 9.02401C335.337 9.984 335.241 10.944 335.177 11.904C335.177 12.864 335.113 13.824 334.985 14.784C334.857 15.68 334.729 16.608 334.601 17.568C334.473 18.464 334.313 19.36 334.121 20.256C334.057 21.664 333.929 23.072 333.737 24.48C333.609 25.824 333.545 27.168 333.545 28.512C333.545 28.704 333.545 28.864 333.545 28.992C333.609 29.12 333.641 29.248 333.641 29.376C333.321 30.016 333.065 30.656 332.873 31.296C332.745 31.936 332.585 32.608 332.393 33.312C332.265 33.824 332.265 34.368 332.393 34.944C332.585 35.712 332.649 36.48 332.585 37.248C332.585 38.016 332.521 38.816 332.393 39.648V40.224C332.521 40.48 332.649 40.768 332.777 41.088C332.969 41.408 333.129 41.728 333.257 42.048C333.193 42.24 333.129 42.464 333.065 42.72C333.001 42.912 332.937 43.104 332.873 43.296C333.001 43.616 333.065 43.968 333.065 44.352C333.129 44.736 333.193 45.088 333.257 45.408C333.513 45.728 333.769 46.048 334.025 46.368C334.281 46.624 334.441 46.944 334.505 47.328C334.505 47.456 334.569 47.616 334.697 47.808C334.825 48 334.921 48.16 334.985 48.288C335.113 48.608 335.305 48.864 335.561 49.056C335.881 49.248 336.169 49.408 336.425 49.536C336.873 49.6 337.289 49.696 337.673 49.824C338.057 49.952 338.473 50.08 338.921 50.208C339.177 50.208 339.369 50.208 339.497 50.208C339.689 50.144 339.881 50.112 340.073 50.112C340.201 50.176 340.361 50.24 340.553 50.304C340.809 50.368 341.033 50.432 341.225 50.496C341.289 50.56 341.353 50.656 341.417 50.784C341.481 50.848 341.545 50.912 341.609 50.976C341.737 51.488 342.089 52.032 342.665 52.608C342.985 52.864 343.273 53.152 343.529 53.472C343.849 53.728 344.073 54.048 344.201 54.432ZM393.981 28.32C393.917 28.96 393.853 29.632 393.789 30.336C393.789 30.976 393.725 31.616 393.597 32.256C393.533 32.896 393.501 33.6 393.501 34.368C393.501 35.072 393.373 35.808 393.117 36.576C392.989 36.768 392.829 36.992 392.637 37.248C392.445 37.44 392.253 37.696 392.061 38.016C392.061 38.272 392.061 38.496 392.061 38.688C392.125 38.88 392.189 39.104 392.253 39.36C392.125 39.68 391.933 39.968 391.677 40.224C391.421 40.416 391.165 40.576 390.909 40.704C390.269 40.896 389.661 41.088 389.085 41.28C388.573 41.472 388.029 41.632 387.453 41.76C386.557 41.888 385.629 41.92 384.669 41.856C383.709 41.728 382.749 41.696 381.789 41.76C380.957 41.76 380.061 41.792 379.101 41.856C378.205 41.856 377.277 41.856 376.317 41.856H370.941C370.685 42.048 370.397 42.112 370.077 42.048C369.821 41.984 369.565 42.016 369.309 42.144C369.053 42.016 368.765 42.016 368.445 42.144C368.125 42.208 367.805 42.176 367.485 42.048C367.229 42.112 366.973 42.176 366.717 42.24C366.525 42.24 366.269 42.272 365.949 42.336C365.693 42.272 365.469 42.208 365.277 42.144C365.085 42.016 364.861 42.048 364.605 42.24C364.733 42.432 364.861 42.656 364.989 42.912C365.181 43.104 365.309 43.36 365.373 43.68C365.565 43.936 365.725 44.192 365.853 44.448C365.981 44.704 366.109 44.992 366.237 45.312C366.365 45.568 366.461 45.856 366.525 46.176C366.589 46.432 366.653 46.688 366.717 46.944C367.037 47.264 367.389 47.584 367.773 47.904C368.157 48.224 368.541 48.544 368.925 48.864C369.245 48.928 369.565 48.992 369.885 49.056C370.269 49.12 370.621 49.184 370.941 49.248C371.325 49.312 371.709 49.376 372.093 49.44C372.477 49.504 372.893 49.504 373.341 49.44C373.789 49.312 374.205 49.344 374.589 49.536C374.973 49.664 375.389 49.76 375.837 49.824C376.413 49.76 376.989 49.696 377.565 49.632C378.205 49.568 378.813 49.504 379.389 49.44C379.645 49.248 379.901 49.088 380.157 48.96C380.477 48.768 380.765 48.576 381.021 48.384C381.853 48.192 382.685 48.224 383.517 48.48C383.709 48.8 383.933 49.12 384.189 49.44C384.509 49.76 384.797 50.112 385.053 50.496C385.437 51.072 385.821 51.648 386.205 52.224C386.589 52.736 386.845 53.344 386.973 54.048C387.101 54.368 387.293 54.688 387.549 55.008C387.805 55.328 387.997 55.616 388.125 55.872C388.189 56.192 388.157 56.48 388.029 56.736C387.965 56.992 387.901 57.28 387.837 57.6C387.581 57.856 387.261 58.08 386.877 58.272C386.813 58.272 386.749 58.336 386.685 58.464C386.621 58.592 386.525 58.688 386.397 58.752C386.013 59.008 385.629 59.264 385.245 59.52C384.861 59.776 384.509 60.032 384.189 60.288C383.293 61.056 382.365 61.44 381.405 61.44C381.021 61.44 380.733 61.472 380.541 61.536C380.221 61.6 379.901 61.728 379.581 61.92C379.261 62.112 378.909 62.272 378.525 62.4C378.205 62.4 377.885 62.432 377.565 62.496C377.245 62.624 376.925 62.72 376.605 62.784C376.413 62.784 376.189 62.752 375.933 62.688C375.677 62.688 375.421 62.688 375.165 62.688C374.589 62.752 374.013 62.72 373.437 62.592C372.861 62.464 372.285 62.4 371.709 62.4C371.517 62.336 371.325 62.272 371.133 62.208C370.941 62.144 370.749 62.112 370.557 62.112C369.469 62.176 368.445 62.016 367.485 61.632C366.525 61.184 365.565 60.736 364.605 60.288C363.837 60.096 363.293 59.744 362.973 59.232C362.525 58.72 362.013 58.304 361.437 57.984C360.925 57.6 360.349 57.28 359.709 57.024C359.325 56.896 358.941 56.736 358.557 56.544C358.173 56.288 357.757 56.032 357.309 55.776C357.245 55.52 357.149 55.264 357.021 55.008C356.893 54.752 356.765 54.496 356.637 54.24C356.509 54.048 356.317 53.856 356.061 53.664C355.869 53.472 355.677 53.28 355.485 53.088C355.293 52.896 355.133 52.672 355.005 52.416C354.685 51.328 354.365 50.272 354.045 49.248C353.725 48.16 353.309 47.104 352.797 46.08C352.861 45.632 352.893 45.184 352.893 44.736C352.957 44.224 352.925 43.68 352.797 43.104C352.733 42.976 352.701 42.816 352.701 42.624C352.701 42.432 352.701 42.272 352.701 42.144C352.701 41.824 352.701 41.568 352.701 41.376C352.765 41.12 352.765 40.896 352.701 40.704C352.637 40.192 352.573 39.68 352.509 39.168C352.445 38.656 352.477 38.176 352.605 37.728C352.733 37.216 352.861 36.704 352.989 36.192C353.117 35.68 353.277 35.136 353.469 34.56C353.405 34.432 353.373 34.24 353.373 33.984C353.373 33.728 353.341 33.472 353.277 33.216C353.405 32.512 353.533 31.808 353.661 31.104C353.789 30.4 353.949 29.728 354.141 29.088C354.333 28.704 354.525 28.352 354.717 28.032C354.973 27.648 355.229 27.264 355.485 26.88C355.933 26.112 356.285 25.376 356.541 24.672C357.309 24.288 357.757 24.064 357.885 24C358.077 23.872 358.237 23.712 358.365 23.52C358.493 23.328 358.909 22.944 359.613 22.368C359.549 22.176 359.709 21.888 360.093 21.504C360.477 21.12 360.605 20.8 360.477 20.544C361.053 19.456 361.885 18.592 362.973 17.952C363.357 17.696 363.709 17.44 364.029 17.184C364.413 16.864 364.733 16.576 364.989 16.32C365.309 16.128 365.597 16.064 365.853 16.128C366.173 16.128 366.461 16.128 366.717 16.128C366.909 16.064 367.101 16.032 367.293 16.032C367.549 15.968 367.805 15.904 368.061 15.84C368.189 15.776 368.349 15.712 368.541 15.648C368.733 15.584 368.893 15.488 369.021 15.36C369.149 15.296 369.277 15.232 369.405 15.168C369.533 15.104 369.661 15.072 369.789 15.072C370.365 15.008 370.909 14.848 371.421 14.592C371.933 14.336 372.413 14.08 372.861 13.824C373.821 14.208 374.813 14.336 375.837 14.208C376.477 14.144 377.085 14.176 377.661 14.304C378.301 14.432 378.877 14.592 379.389 14.784L380.733 14.4C381.245 14.464 381.725 14.624 382.173 14.88C382.621 15.136 383.069 15.392 383.517 15.648H384.381C384.445 15.712 384.509 15.776 384.573 15.84C384.637 15.84 384.701 15.872 384.765 15.936C385.469 16.576 386.141 17.184 386.781 17.76C387.421 18.272 388.093 18.816 388.797 19.392C389.757 20.032 390.365 20.8 390.621 21.696C390.877 22.08 391.101 22.368 391.293 22.56C392.061 23.2 392.733 24.064 393.309 25.152C393.309 25.28 393.309 25.472 393.309 25.728C393.373 25.92 393.405 26.112 393.405 26.304C393.341 26.624 393.405 26.944 393.597 27.264C393.789 27.584 393.917 27.936 393.981 28.32ZM381.789 31.488V29.088C381.789 28.768 381.757 28.576 381.693 28.512C381.629 28.32 381.533 28.128 381.405 27.936C381.341 27.744 381.277 27.616 381.213 27.552V25.92L380.925 25.632C380.669 25.632 380.349 25.568 379.965 25.44C379.837 24.864 379.677 24.416 379.485 24.096C379.293 23.84 379.037 23.68 378.717 23.616C378.397 23.552 378.045 23.456 377.661 23.328C376.829 23.584 375.933 23.808 374.973 24C374.013 24.192 373.085 24.448 372.189 24.768C371.741 24.832 371.325 24.864 370.941 24.864C370.557 24.864 370.173 24.896 369.789 24.96C369.149 25.216 368.573 25.632 368.061 26.208C367.613 26.72 367.165 27.232 366.717 27.744C366.461 28.064 366.237 28.416 366.045 28.8C365.853 29.184 365.629 29.536 365.373 29.856C365.309 29.92 365.277 30.112 365.277 30.432C365.469 30.944 365.757 31.264 366.141 31.392C366.525 31.456 366.909 31.552 367.293 31.68C367.677 31.808 368.093 31.936 368.541 32.064C368.733 32 368.893 31.968 369.021 31.968C369.213 31.968 369.405 31.936 369.597 31.872C370.365 31.552 371.005 31.52 371.517 31.776C372.029 31.84 372.477 31.84 372.861 31.776C373.309 31.712 373.757 31.648 374.205 31.584C374.589 31.776 374.973 31.904 375.357 31.968C375.805 32.032 376.221 32.128 376.605 32.256C377.437 32.512 378.237 32.64 379.005 32.64C379.773 32.64 380.541 32.544 381.309 32.352C381.629 32.032 381.789 31.744 381.789 31.488Z" fill="black"/>
</svg>
