<svg width="201" height="169" viewBox="0 0 201 169" fill="none" xmlns="http://www.w3.org/2000/svg">
<path d="M42.8236 49.536C42.8876 49.984 42.8556 50.496 42.7276 51.072C42.6636 51.584 42.6316 52.096 42.6316 52.608C42.6316 53.056 42.5996 53.536 42.5356 54.048C42.4716 54.56 42.3756 55.072 42.2476 55.584C42.0556 56.032 41.9916 56.512 42.0556 57.024C42.1196 57.472 42.1196 57.952 42.0556 58.464C41.9276 58.72 41.7676 59.008 41.5756 59.328C41.4476 59.648 41.2876 59.968 41.0956 60.288C41.0316 60.544 40.9356 60.832 40.8076 61.152C40.6796 61.408 40.5516 61.696 40.4236 62.016C39.9756 62.208 39.5276 62.4 39.0796 62.592C38.6956 62.848 38.3116 63.04 37.9276 63.168C37.0956 63.36 36.1996 63.392 35.2396 63.264C34.3436 63.136 33.4476 63.2 32.5516 63.456C32.4236 63.52 32.2636 63.584 32.0716 63.648C31.9436 63.712 31.7516 63.808 31.4956 63.936C31.2396 64 30.9196 64.064 30.5356 64.128C30.2156 64.192 29.8956 64.256 29.5756 64.32C29.3196 64.32 29.0636 64.32 28.8076 64.32C28.6156 64.32 28.4556 64.288 28.3276 64.224C27.9436 64.032 27.5596 63.936 27.1756 63.936C26.8556 63.936 26.5356 64 26.2156 64.128C25.9596 64.128 25.7036 64.096 25.4476 64.032C25.1916 63.968 24.9036 63.904 24.5836 63.84C24.2636 64.16 23.8476 64.416 23.3356 64.608C22.8236 64.8 22.2796 64.832 21.7036 64.704C21.1276 64.64 20.6156 64.768 20.1676 65.088C19.7836 64.896 19.4316 64.736 19.1116 64.608C18.8556 64.48 18.5676 64.384 18.2476 64.32C17.7996 64.256 17.3516 64.288 16.9036 64.416C16.5196 64.544 16.0716 64.576 15.5596 64.512C15.0476 64.384 14.5356 64.384 14.0236 64.512C13.5756 64.64 13.0956 64.704 12.5836 64.704C12.0716 64.64 11.5916 64.608 11.1436 64.608C10.6956 64.672 10.2796 64.768 9.89555 64.896C9.83155 64.704 9.73555 64.544 9.60755 64.416C9.47955 64.352 9.41555 64.288 9.41555 64.224C8.96755 62.24 8.74355 60.096 8.74355 57.792C8.87155 57.152 8.90355 56.544 8.83955 55.968C8.77555 55.328 8.74355 54.656 8.74355 53.952C8.29555 52.672 8.00755 51.392 7.87955 50.112C7.81555 48.832 7.81555 47.52 7.87955 46.176C7.94355 44.896 8.00755 43.584 8.07155 42.24C8.13555 40.896 8.19955 39.52 8.26355 38.112C8.26355 37.6 8.29555 37.056 8.35955 36.48C8.42355 35.904 8.51955 35.36 8.64755 34.848C8.90355 34.208 9.06355 33.568 9.12755 32.928C9.19155 32.224 9.22355 31.52 9.22355 30.816C9.22355 30.24 9.22355 29.664 9.22355 29.088C9.22355 28.448 9.19155 27.808 9.12755 27.168C9.12755 26.912 9.12755 26.624 9.12755 26.304C9.12755 25.984 9.09555 25.664 9.03155 25.344C8.90355 24.832 8.80755 24.32 8.74355 23.808C8.67955 23.296 8.64755 22.816 8.64755 22.368C8.71155 22.048 8.71155 21.728 8.64755 21.408C8.64755 21.088 8.61555 20.768 8.55155 20.448C8.48755 20.192 8.48755 19.904 8.55155 19.584C8.61555 19.264 8.61555 18.976 8.55155 18.72C8.48755 18.272 8.45555 17.856 8.45555 17.472C8.45555 17.088 8.51955 16.704 8.64755 16.32C8.71155 15.936 8.67955 15.52 8.55155 15.072C8.48755 14.56 8.42355 14.048 8.35955 13.536C8.35955 12.96 8.42355 12.448 8.55155 12C8.74355 11.232 8.87155 10.464 8.93555 9.696C8.99955 8.86401 9.06355 8.12801 9.12755 7.488C9.25555 6.97601 9.44755 6.59201 9.70355 6.33601C10.0236 6.01601 10.1516 5.66401 10.0876 5.28C10.0236 4.896 10.1836 4.64001 10.5676 4.51201C10.9516 4.32001 10.9836 4.00001 10.6636 3.55201C11.1116 3.55201 11.3676 3.58401 11.4316 3.64801C12.6476 4.16 13.7036 4.224 14.5996 3.84C14.9836 3.904 15.3676 3.968 15.7516 4.03201C16.1356 4.09601 16.4876 4.12801 16.8076 4.12801C17.1276 4.19201 17.4796 4.19201 17.8636 4.12801C18.2476 4.06401 18.5996 4.00001 18.9196 3.936C19.6876 3.74401 20.4236 3.58401 21.1276 3.456C21.8956 3.26401 22.6636 3.16801 23.4316 3.16801C24.1356 3.04 24.7756 3.04 25.3516 3.16801C25.5436 3.16801 25.8316 3.29601 26.2156 3.55201C26.1516 3.808 26.0876 4.064 26.0236 4.32C26.0236 4.576 25.9916 4.832 25.9276 5.08801C25.9916 5.408 26.0556 5.76 26.1196 6.144C26.2476 6.464 26.3116 6.816 26.3116 7.20001C26.3756 7.52001 26.4716 7.87201 26.5996 8.256C26.7916 8.576 26.9516 8.92801 27.0796 9.31201C26.8876 9.69601 26.6956 10.144 26.5036 10.656C26.3116 11.104 26.1196 11.552 25.9276 12C26.0556 12.256 26.1516 12.512 26.2156 12.768C26.2796 12.96 26.3436 13.184 26.4076 13.44C26.1516 14.592 25.8956 15.744 25.6396 16.896C25.4476 18.048 25.3196 19.232 25.2556 20.448C25.1916 20.768 25.0956 21.12 24.9676 21.504C24.9036 21.824 24.8076 22.208 24.6796 22.656C24.8076 22.912 24.9356 23.2 25.0636 23.52C25.1916 23.776 25.2876 24.064 25.3516 24.384L24.9676 26.304C24.9676 26.56 24.9676 26.848 24.9676 27.168C24.9676 27.424 24.9036 27.648 24.7756 27.84C24.5836 28.288 24.4556 28.736 24.3916 29.184C24.3916 29.632 24.3276 30.112 24.1996 30.624C24.1996 31.456 24.1676 32.32 24.1036 33.216C24.0396 34.048 24.0396 34.912 24.1036 35.808C24.1036 36.384 24.0076 36.928 23.8156 37.44C23.6876 37.888 23.5596 38.432 23.4316 39.072C23.5596 39.328 23.6556 39.584 23.7196 39.84C23.7836 40.096 23.8476 40.384 23.9116 40.704C23.8476 41.024 23.7516 41.376 23.6236 41.76C23.5596 42.08 23.4636 42.432 23.3356 42.816C23.5276 43.264 23.7196 43.712 23.9116 44.16C24.1036 44.608 24.2956 45.088 24.4876 45.6C24.6156 45.856 24.7116 46.112 24.7756 46.368C24.8396 46.56 24.9036 46.784 24.9676 47.04C25.1596 47.552 25.3516 47.872 25.5436 48C25.7996 48.128 26.1516 48.16 26.5996 48.096C27.4956 47.84 28.4236 47.648 29.3836 47.52C30.3436 47.392 31.3036 47.232 32.2636 47.04C32.4556 46.976 32.7756 46.944 33.2236 46.944C33.7996 46.944 34.3756 46.88 34.9516 46.752C35.5916 46.624 36.1676 46.4 36.6796 46.08C37.8316 45.376 39.0156 45.12 40.2316 45.312C40.5516 45.376 40.8716 45.376 41.1916 45.312C41.5116 45.248 41.8316 45.28 42.1516 45.408C42.2156 45.472 42.2796 45.6 42.3436 45.792C42.4076 45.92 42.4396 46.048 42.4396 46.176C42.6316 46.752 42.7276 47.328 42.7276 47.904C42.7916 48.416 42.8236 48.96 42.8236 49.536ZM92.2958 28.32C92.2318 28.96 92.1678 29.632 92.1038 30.336C92.1038 30.976 92.0398 31.616 91.9118 32.256C91.8478 32.896 91.8158 33.6 91.8158 34.368C91.8158 35.072 91.6878 35.808 91.4318 36.576C91.3038 36.768 91.1438 36.992 90.9518 37.248C90.7598 37.44 90.5678 37.696 90.3758 38.016C90.3758 38.272 90.3758 38.496 90.3758 38.688C90.4398 38.88 90.5038 39.104 90.5678 39.36C90.4398 39.68 90.2478 39.968 89.9918 40.224C89.7358 40.416 89.4798 40.576 89.2238 40.704C88.5838 40.896 87.9758 41.088 87.3998 41.28C86.8878 41.472 86.3438 41.632 85.7678 41.76C84.8718 41.888 83.9438 41.92 82.9838 41.856C82.0238 41.728 81.0638 41.696 80.1038 41.76C79.2718 41.76 78.3758 41.792 77.4158 41.856C76.5198 41.856 75.5918 41.856 74.6318 41.856H69.2558C68.9998 42.048 68.7118 42.112 68.3918 42.048C68.1358 41.984 67.8798 42.016 67.6238 42.144C67.3678 42.016 67.0798 42.016 66.7598 42.144C66.4398 42.208 66.1198 42.176 65.7998 42.048C65.5438 42.112 65.2878 42.176 65.0318 42.24C64.8398 42.24 64.5838 42.272 64.2638 42.336C64.0078 42.272 63.7838 42.208 63.5918 42.144C63.3998 42.016 63.1758 42.048 62.9198 42.24C63.0478 42.432 63.1758 42.656 63.3038 42.912C63.4958 43.104 63.6238 43.36 63.6878 43.68C63.8798 43.936 64.0398 44.192 64.1678 44.448C64.2958 44.704 64.4238 44.992 64.5518 45.312C64.6798 45.568 64.7758 45.856 64.8398 46.176C64.9038 46.432 64.9678 46.688 65.0318 46.944C65.3518 47.264 65.7038 47.584 66.0878 47.904C66.4718 48.224 66.8558 48.544 67.2398 48.864C67.5598 48.928 67.8798 48.992 68.1998 49.056C68.5838 49.12 68.9358 49.184 69.2558 49.248C69.6398 49.312 70.0238 49.376 70.4078 49.44C70.7918 49.504 71.2078 49.504 71.6558 49.44C72.1038 49.312 72.5198 49.344 72.9038 49.536C73.2878 49.664 73.7038 49.76 74.1518 49.824C74.7278 49.76 75.3038 49.696 75.8798 49.632C76.5198 49.568 77.1278 49.504 77.7038 49.44C77.9598 49.248 78.2158 49.088 78.4718 48.96C78.7918 48.768 79.0798 48.576 79.3358 48.384C80.1678 48.192 80.9998 48.224 81.8318 48.48C82.0238 48.8 82.2478 49.12 82.5038 49.44C82.8238 49.76 83.1118 50.112 83.3678 50.496C83.7518 51.072 84.1358 51.648 84.5198 52.224C84.9038 52.736 85.1598 53.344 85.2878 54.048C85.4158 54.368 85.6078 54.688 85.8638 55.008C86.1198 55.328 86.3118 55.616 86.4398 55.872C86.5038 56.192 86.4718 56.48 86.3438 56.736C86.2798 56.992 86.2158 57.28 86.1518 57.6C85.8958 57.856 85.5758 58.08 85.1918 58.272C85.1278 58.272 85.0638 58.336 84.9998 58.464C84.9358 58.592 84.8398 58.688 84.7118 58.752C84.3278 59.008 83.9438 59.264 83.5598 59.52C83.1758 59.776 82.8238 60.032 82.5038 60.288C81.6078 61.056 80.6798 61.44 79.7198 61.44C79.3358 61.44 79.0478 61.472 78.8558 61.536C78.5358 61.6 78.2158 61.728 77.8958 61.92C77.5758 62.112 77.2238 62.272 76.8398 62.4C76.5198 62.4 76.1998 62.432 75.8798 62.496C75.5598 62.624 75.2398 62.72 74.9198 62.784C74.7278 62.784 74.5038 62.752 74.2478 62.688C73.9918 62.688 73.7358 62.688 73.4798 62.688C72.9038 62.752 72.3278 62.72 71.7518 62.592C71.1758 62.464 70.5998 62.4 70.0238 62.4C69.8318 62.336 69.6398 62.272 69.4478 62.208C69.2558 62.144 69.0638 62.112 68.8718 62.112C67.7838 62.176 66.7598 62.016 65.7998 61.632C64.8398 61.184 63.8798 60.736 62.9198 60.288C62.1518 60.096 61.6078 59.744 61.2878 59.232C60.8398 58.72 60.3278 58.304 59.7518 57.984C59.2398 57.6 58.6638 57.28 58.0238 57.024C57.6398 56.896 57.2558 56.736 56.8718 56.544C56.4878 56.288 56.0718 56.032 55.6238 55.776C55.5598 55.52 55.4638 55.264 55.3358 55.008C55.2078 54.752 55.0798 54.496 54.9518 54.24C54.8238 54.048 54.6318 53.856 54.3758 53.664C54.1838 53.472 53.9918 53.28 53.7998 53.088C53.6078 52.896 53.4478 52.672 53.3198 52.416C52.9998 51.328 52.6798 50.272 52.3598 49.248C52.0398 48.16 51.6238 47.104 51.1118 46.08C51.1758 45.632 51.2078 45.184 51.2078 44.736C51.2718 44.224 51.2398 43.68 51.1118 43.104C51.0478 42.976 51.0158 42.816 51.0158 42.624C51.0158 42.432 51.0158 42.272 51.0158 42.144C51.0158 41.824 51.0158 41.568 51.0158 41.376C51.0798 41.12 51.0798 40.896 51.0158 40.704C50.9518 40.192 50.8878 39.68 50.8238 39.168C50.7598 38.656 50.7918 38.176 50.9198 37.728C51.0478 37.216 51.1758 36.704 51.3038 36.192C51.4318 35.68 51.5918 35.136 51.7838 34.56C51.7198 34.432 51.6878 34.24 51.6878 33.984C51.6878 33.728 51.6558 33.472 51.5918 33.216C51.7198 32.512 51.8478 31.808 51.9758 31.104C52.1038 30.4 52.2638 29.728 52.4558 29.088C52.6478 28.704 52.8398 28.352 53.0318 28.032C53.2878 27.648 53.5438 27.264 53.7998 26.88C54.2478 26.112 54.5998 25.376 54.8558 24.672C55.6238 24.288 56.0718 24.064 56.1998 24C56.3918 23.872 56.5518 23.712 56.6798 23.52C56.8078 23.328 57.2238 22.944 57.9278 22.368C57.8638 22.176 58.0238 21.888 58.4078 21.504C58.7918 21.12 58.9198 20.8 58.7918 20.544C59.3678 19.456 60.1998 18.592 61.2878 17.952C61.6718 17.696 62.0238 17.44 62.3438 17.184C62.7278 16.864 63.0478 16.576 63.3038 16.32C63.6238 16.128 63.9118 16.064 64.1678 16.128C64.4878 16.128 64.7758 16.128 65.0318 16.128C65.2238 16.064 65.4158 16.032 65.6078 16.032C65.8638 15.968 66.1198 15.904 66.3758 15.84C66.5038 15.776 66.6638 15.712 66.8558 15.648C67.0478 15.584 67.2078 15.488 67.3358 15.36C67.4638 15.296 67.5918 15.232 67.7198 15.168C67.8478 15.104 67.9758 15.072 68.1038 15.072C68.6798 15.008 69.2238 14.848 69.7358 14.592C70.2478 14.336 70.7278 14.08 71.1758 13.824C72.1358 14.208 73.1278 14.336 74.1518 14.208C74.7918 14.144 75.3998 14.176 75.9758 14.304C76.6158 14.432 77.1918 14.592 77.7038 14.784L79.0478 14.4C79.5598 14.464 80.0398 14.624 80.4878 14.88C80.9358 15.136 81.3838 15.392 81.8318 15.648H82.6958C82.7598 15.712 82.8238 15.776 82.8878 15.84C82.9518 15.84 83.0158 15.872 83.0798 15.936C83.7838 16.576 84.4558 17.184 85.0958 17.76C85.7358 18.272 86.4078 18.816 87.1118 19.392C88.0718 20.032 88.6798 20.8 88.9358 21.696C89.1918 22.08 89.4158 22.368 89.6078 22.56C90.3758 23.2 91.0478 24.064 91.6238 25.152C91.6238 25.28 91.6238 25.472 91.6238 25.728C91.6878 25.92 91.7198 26.112 91.7198 26.304C91.6558 26.624 91.7198 26.944 91.9118 27.264C92.1038 27.584 92.2318 27.936 92.2958 28.32ZM80.1038 31.488V29.088C80.1038 28.768 80.0718 28.576 80.0078 28.512C79.9438 28.32 79.8478 28.128 79.7198 27.936C79.6558 27.744 79.5918 27.616 79.5278 27.552V25.92L79.2398 25.632C78.9838 25.632 78.6638 25.568 78.2798 25.44C78.1518 24.864 77.9918 24.416 77.7998 24.096C77.6078 23.84 77.3518 23.68 77.0318 23.616C76.7118 23.552 76.3598 23.456 75.9758 23.328C75.1438 23.584 74.2478 23.808 73.2878 24C72.3278 24.192 71.3998 24.448 70.5038 24.768C70.0558 24.832 69.6398 24.864 69.2558 24.864C68.8718 24.864 68.4878 24.896 68.1038 24.96C67.4638 25.216 66.8878 25.632 66.3758 26.208C65.9278 26.72 65.4798 27.232 65.0318 27.744C64.7758 28.064 64.5518 28.416 64.3598 28.8C64.1678 29.184 63.9438 29.536 63.6878 29.856C63.6238 29.92 63.5918 30.112 63.5918 30.432C63.7838 30.944 64.0718 31.264 64.4558 31.392C64.8398 31.456 65.2238 31.552 65.6078 31.68C65.9918 31.808 66.4078 31.936 66.8558 32.064C67.0478 32 67.2078 31.968 67.3358 31.968C67.5278 31.968 67.7198 31.936 67.9118 31.872C68.6798 31.552 69.3198 31.52 69.8318 31.776C70.3438 31.84 70.7918 31.84 71.1758 31.776C71.6238 31.712 72.0718 31.648 72.5198 31.584C72.9038 31.776 73.2878 31.904 73.6718 31.968C74.1198 32.032 74.5358 32.128 74.9198 32.256C75.7518 32.512 76.5518 32.64 77.3198 32.64C78.0878 32.64 78.8558 32.544 79.6238 32.352C79.9438 32.032 80.1038 31.744 80.1038 31.488ZM146.687 57.504C146.879 57.952 146.943 58.368 146.879 58.752C146.815 59.136 146.687 59.52 146.495 59.904C146.431 59.968 146.303 60.064 146.111 60.192C145.919 60.256 145.759 60.352 145.631 60.48C145.375 60.544 145.151 60.576 144.959 60.576C144.767 60.576 144.543 60.64 144.287 60.768C143.327 60.96 142.751 61.472 142.559 62.304C142.495 62.432 142.367 62.592 142.175 62.784C141.727 62.848 141.407 62.912 141.215 62.976C141.023 63.104 140.639 63.328 140.063 63.648C139.615 63.648 139.167 63.712 138.719 63.84C138.271 63.968 137.855 64.224 137.471 64.608C137.343 64.608 137.247 64.608 137.183 64.608C137.119 64.672 137.023 64.704 136.895 64.704C136.639 64.832 136.351 64.768 136.031 64.512C135.711 64.32 135.551 64.064 135.551 63.744V63.168C135.295 63.04 134.975 63.04 134.591 63.168C134.271 63.296 134.015 63.168 133.823 62.784V61.344C133.631 61.216 133.439 61.12 133.247 61.056C133.119 60.928 132.959 60.832 132.767 60.768C132.511 60.256 132.223 59.712 131.903 59.136C131.583 58.56 131.263 58.048 130.943 57.6C130.687 57.408 130.463 57.344 130.271 57.408C130.079 57.472 129.919 57.568 129.791 57.696C129.663 57.824 129.567 57.984 129.503 58.176C129.439 58.304 129.343 58.432 129.215 58.56C129.087 58.688 128.991 58.848 128.927 59.04C128.863 59.232 128.767 59.392 128.639 59.52C127.807 59.904 126.975 60.256 126.143 60.576C125.311 60.832 124.511 61.056 123.743 61.248C123.295 61.568 122.847 61.856 122.399 62.112C121.951 62.368 121.535 62.624 121.151 62.88C120.767 62.944 120.383 63.04 119.999 63.168C119.615 63.296 119.263 63.392 118.943 63.456C118.559 63.264 118.175 63.2 117.791 63.264C117.471 63.392 117.055 63.52 116.543 63.648C115.967 63.52 115.359 63.36 114.719 63.168C114.079 63.04 113.407 62.912 112.703 62.784C112.511 62.848 112.319 62.88 112.127 62.88C111.935 62.88 111.775 62.912 111.647 62.976C111.391 62.848 111.167 62.72 110.975 62.592C110.847 62.464 110.655 62.368 110.399 62.304C110.079 62.176 109.791 62.176 109.535 62.304C109.279 62.432 108.991 62.56 108.671 62.688C108.351 62.56 107.999 62.464 107.615 62.4C107.231 62.4 106.847 62.368 106.463 62.304C106.143 61.984 105.855 61.696 105.599 61.44C105.407 61.184 105.279 60.864 105.215 60.48C105.087 60.352 104.959 60.256 104.831 60.192C104.703 60.064 104.607 59.968 104.543 59.904C104.287 59.008 103.999 58.24 103.679 57.6C102.783 55.68 102.175 53.568 101.855 51.264C101.727 51.136 101.599 51.008 101.471 50.88C101.343 50.688 101.183 50.496 100.991 50.304C100.927 49.728 100.863 49.184 100.799 48.672C100.735 48.096 100.639 47.488 100.511 46.848C100.639 46.464 100.703 46.112 100.703 45.792C100.575 45.152 100.447 44.576 100.319 44.064C100.575 43.296 100.831 42.528 101.087 41.76C101.407 40.992 101.503 40.192 101.375 39.36C101.503 39.104 101.663 38.88 101.855 38.688C102.047 38.432 102.207 38.208 102.335 38.016C102.911 37.376 103.327 36.64 103.583 35.808C103.775 35.104 104.095 34.496 104.543 33.984C105.055 33.472 105.599 33.056 106.175 32.736C106.879 32.416 107.551 32.096 108.191 31.776C108.895 31.392 109.567 31.072 110.207 30.816C110.335 30.816 110.495 30.848 110.687 30.912C110.943 30.912 111.135 30.88 111.263 30.816C112.415 30.624 113.407 30.56 114.239 30.624C114.623 30.688 115.007 30.688 115.391 30.624C115.775 30.56 116.127 30.528 116.447 30.528L118.463 30.144C118.847 30.208 119.231 30.304 119.615 30.432C119.999 30.56 120.383 30.528 120.767 30.336C120.895 30.336 120.991 30.368 121.055 30.432C121.183 30.432 121.279 30.432 121.343 30.432C121.663 30.56 121.951 30.72 122.207 30.912C122.463 31.04 122.751 31.104 123.071 31.104C123.775 31.232 124.223 31.104 124.415 30.72C124.351 29.632 124.255 28.928 124.127 28.608C124.063 28.288 123.871 27.776 123.551 27.072C123.359 26.688 123.231 26.304 123.167 25.92C123.103 25.472 123.039 25.056 122.975 24.672C122.911 24.416 122.847 24.192 122.783 24C122.783 23.744 122.655 23.488 122.399 23.232C121.567 22.976 120.543 22.784 119.327 22.656H118.751C118.175 22.912 117.567 23.04 116.927 23.04C116.287 23.04 115.615 23.104 114.911 23.232C114.463 23.296 113.983 23.424 113.471 23.616C113.023 23.808 112.543 23.968 112.031 24.096C111.519 24.352 111.007 24.224 110.495 23.712C110.303 23.136 110.207 22.56 110.207 21.984C110.271 21.344 110.335 20.704 110.399 20.064C110.271 19.616 110.111 19.104 109.919 18.528C109.727 17.888 109.631 17.152 109.631 16.32L109.727 15.648C109.663 15.52 109.535 15.392 109.343 15.264C109.215 15.136 109.087 15.04 108.959 14.976C108.767 14.784 108.735 14.592 108.863 14.4C108.863 14.208 108.959 14.112 109.151 14.112C109.663 13.984 110.143 13.888 110.591 13.824C111.039 13.76 111.487 13.696 111.935 13.632L113.087 12.48C113.215 12.416 113.375 12.384 113.567 12.384C115.039 12.64 116.095 12.736 116.735 12.672C117.439 12.608 118.495 12.352 119.903 11.904C120.607 11.968 121.279 12.064 121.919 12.192C122.623 12.32 123.327 12.352 124.031 12.288C124.223 12.48 124.415 12.672 124.607 12.864C124.863 12.992 125.119 13.152 125.375 13.344C125.695 13.216 126.015 13.12 126.335 13.056C126.655 12.928 126.943 12.832 127.199 12.768C127.583 13.024 127.999 13.28 128.447 13.536C128.767 13.6 129.023 13.536 129.215 13.344C129.471 13.152 129.727 13.056 129.983 13.056C130.559 13.12 131.007 13.408 131.327 13.92C131.711 14.368 132.127 14.752 132.575 15.072C132.959 15.328 133.311 15.648 133.631 16.032C134.015 16.416 134.399 16.768 134.783 17.088C134.911 17.28 135.039 17.472 135.167 17.664C135.295 17.856 135.391 18.048 135.455 18.24C135.775 18.496 136.063 18.72 136.319 18.912C136.575 19.04 136.799 19.232 136.991 19.488C137.311 19.744 137.631 19.936 137.951 20.064C138.335 20.192 138.623 20.416 138.815 20.736C138.943 21.056 139.071 21.408 139.199 21.792C139.327 22.112 139.551 22.4 139.871 22.656C140.063 23.296 140.255 23.968 140.447 24.672C140.639 25.312 140.671 25.984 140.543 26.688C140.543 27.008 140.511 27.296 140.447 27.552C140.575 27.872 140.671 28.224 140.735 28.608C140.799 28.992 140.895 29.344 141.023 29.664V30.144C141.023 30.336 140.991 30.56 140.927 30.816C140.927 31.008 140.959 31.168 141.023 31.296C141.151 31.68 141.311 31.968 141.503 32.16C141.503 32.544 141.343 32.896 141.023 33.216C140.895 33.28 140.735 33.344 140.543 33.408C140.351 33.472 140.191 33.568 140.063 33.696C139.295 34.144 139.199 34.72 139.775 35.424C139.839 35.488 139.935 35.616 140.063 35.808C140.255 35.936 140.383 36.096 140.447 36.288C140.511 36.544 140.543 36.832 140.543 37.152C140.543 37.408 140.575 37.696 140.639 38.016C140.383 39.232 139.903 40.384 139.199 41.472C139.391 42.368 139.679 43.232 140.063 44.064C140.511 44.896 140.895 45.76 141.215 46.656C141.535 46.848 141.791 47.04 141.983 47.232C142.175 47.424 142.399 47.584 142.655 47.712C142.719 47.904 142.751 48.032 142.751 48.096C142.815 48.16 142.847 48.256 142.847 48.384C142.847 49.024 142.911 49.664 143.039 50.304C143.231 50.944 143.455 51.552 143.711 52.128C143.967 52.704 144.223 53.248 144.479 53.76C144.735 54.272 145.055 54.784 145.439 55.296C145.759 55.552 146.015 55.904 146.207 56.352C146.399 56.8 146.559 57.184 146.687 57.504ZM125.663 44.544C125.279 43.584 124.799 42.944 124.223 42.624C123.519 42.304 123.071 41.888 122.879 41.376C122.815 41.12 122.687 40.96 122.495 40.896C122.303 40.832 122.111 40.768 121.919 40.704C121.663 40.704 121.343 40.736 120.959 40.8C120.639 40.8 120.319 40.832 119.999 40.896C119.615 40.896 119.231 40.832 118.847 40.704C118.527 40.576 118.207 40.48 117.887 40.416C117.311 40.416 116.767 40.576 116.255 40.896C115.999 41.088 115.775 41.28 115.583 41.472C115.391 41.6 115.199 41.792 115.007 42.048L113.759 44.352C113.887 44.736 114.047 45.088 114.239 45.408C114.431 45.664 114.431 46.048 114.239 46.56C114.367 47.136 114.495 47.744 114.623 48.384C114.815 48.96 115.071 49.536 115.391 50.112C115.519 50.24 115.615 50.304 115.679 50.304C116.383 50.432 117.087 50.496 117.791 50.496C118.495 50.496 119.167 50.464 119.807 50.4C120.063 50.4 120.255 50.368 120.383 50.304C121.087 49.92 121.951 49.568 122.975 49.248C123.359 49.184 123.711 48.896 124.031 48.384C124.287 47.808 124.543 47.2 124.799 46.56C125.055 45.856 125.343 45.184 125.663 44.544ZM105.311 60.288C105.311 60.288 105.279 60.288 105.215 60.288C105.215 60.288 105.215 60.352 105.215 60.48C105.343 60.352 105.375 60.288 105.311 60.288ZM193.38 35.616C193.316 35.936 193.22 36.256 193.092 36.576C193.028 36.832 192.964 37.184 192.9 37.632C192.9 38.08 193.028 38.464 193.284 38.784C193.092 39.552 192.708 40.096 192.132 40.416C191.684 40.608 191.204 40.768 190.692 40.896C190.244 40.96 189.668 41.216 188.964 41.664C188.708 41.92 188.452 42.24 188.196 42.624C187.748 42.752 187.364 42.848 187.044 42.912C186.724 42.976 186.404 43.072 186.084 43.2C185.124 43.008 184.356 43.136 183.78 43.584C183.524 43.776 183.236 43.872 182.916 43.872C182.66 43.808 182.372 43.84 182.052 43.968C181.988 44.096 181.892 44.256 181.764 44.448C181.7 44.576 181.604 44.768 181.476 45.024C181.22 45.088 180.964 45.152 180.708 45.216C180.452 45.28 180.228 45.344 180.036 45.408C179.716 45.472 179.396 45.472 179.076 45.408C178.82 45.344 178.532 45.376 178.212 45.504C178.084 45.568 177.892 45.6 177.636 45.6C177.38 45.536 177.124 45.536 176.868 45.6C176.804 45.728 176.708 45.888 176.58 46.08C176.516 46.208 176.42 46.336 176.292 46.464C176.356 46.72 176.42 46.976 176.484 47.232C176.548 47.488 176.612 47.776 176.676 48.096C176.74 48.288 176.772 48.512 176.772 48.768C176.772 49.024 176.804 49.28 176.868 49.536C177.38 50.752 177.38 51.968 176.868 53.184C176.996 53.632 177.092 54.08 177.156 54.528C177.284 54.912 177.284 55.328 177.156 55.776C177.092 55.968 177.06 56.16 177.06 56.352C177.124 56.48 177.188 56.64 177.252 56.832C177.38 57.536 177.348 58.176 177.156 58.752C177.092 59.008 177.06 59.264 177.06 59.52C177.124 59.712 177.156 59.904 177.156 60.096C177.22 60.48 177.188 60.864 177.06 61.248C176.996 61.568 176.804 61.888 176.484 62.208C175.908 62.272 175.332 62.304 174.756 62.304C174.18 62.368 173.572 62.496 172.932 62.688C172.676 62.752 172.388 62.784 172.068 62.784C171.812 62.784 171.556 62.816 171.3 62.88C170.596 62.88 169.892 62.976 169.188 63.168C168.676 63.424 168.132 63.392 167.556 63.072C167.3 63.2 167.076 63.328 166.884 63.456C166.756 63.584 166.564 63.712 166.308 63.84C166.052 63.968 165.764 63.936 165.444 63.744C165.188 63.552 165.028 63.36 164.964 63.168C164.9 62.976 164.836 62.752 164.772 62.496C164.708 62.304 164.676 62.112 164.676 61.92C164.676 61.408 164.676 60.896 164.676 60.384C164.676 59.808 164.708 59.264 164.772 58.752C164.9 58.176 164.9 57.6 164.772 57.024C164.708 56.384 164.676 55.808 164.676 55.296C164.676 54.848 164.58 54.528 164.388 54.336C164.132 53.952 164.004 53.536 164.004 53.088C164.004 52.64 163.94 52.192 163.812 51.744C163.748 51.616 163.716 51.488 163.716 51.36C163.78 51.168 163.812 51.04 163.812 50.976C163.94 50.4 164.004 49.856 164.004 49.344C164.004 48.768 163.972 48.192 163.908 47.616C163.908 47.168 163.78 46.848 163.524 46.656C163.46 46.464 163.332 46.336 163.14 46.272C162.948 46.144 162.788 46.048 162.66 45.984C162.212 45.92 161.796 46.016 161.412 46.272C161.092 46.528 160.772 46.688 160.452 46.752C159.62 46.816 158.82 46.752 158.052 46.56C157.284 46.304 156.548 46.208 155.844 46.272C155.588 46.016 155.46 45.888 155.46 45.888L155.172 42.912C155.172 42.336 155.172 41.792 155.172 41.28C155.172 40.768 155.108 40.288 154.98 39.84V39.072C155.108 37.92 155.14 37.184 155.076 36.864C155.076 36.48 154.948 35.84 154.692 34.944C154.884 34.624 155.012 34.464 155.076 34.464C155.908 34.464 156.676 34.336 157.38 34.08C158.148 33.76 158.884 33.472 159.588 33.216C159.844 32.96 160.068 32.8 160.26 32.736C161.156 32.032 161.796 31.584 162.18 31.392C162.628 31.136 163.364 30.848 164.388 30.528C165.092 29.056 165.54 27.552 165.732 26.016C165.924 24.416 165.86 22.816 165.54 21.216C165.604 21.088 165.636 20.96 165.636 20.832C165.7 20.704 165.764 20.576 165.828 20.448C166.532 19.36 166.916 18.24 166.98 17.088C167.044 16.704 167.14 16.32 167.268 15.936C167.396 15.488 167.46 15.04 167.46 14.592C167.396 14.272 167.396 13.92 167.46 13.536C167.524 13.152 167.588 12.736 167.652 12.288C167.844 11.904 168.068 11.488 168.324 11.04C168.644 10.592 168.964 10.144 169.284 9.696C169.412 9.44001 169.444 9.15201 169.38 8.832C169.38 8.512 169.444 8.224 169.572 7.96801C169.764 7.71201 169.924 7.45601 170.052 7.20001C170.18 6.94401 170.34 6.68801 170.532 6.432C170.66 6.30401 170.82 6.17601 171.012 6.048C171.268 5.85601 171.492 5.66401 171.684 5.47201C171.94 5.344 172.132 5.216 172.26 5.08801C172.452 4.896 172.612 4.704 172.74 4.51201C173.06 4.064 173.412 3.712 173.796 3.456C174.244 3.136 174.692 2.816 175.14 2.496H177.252C177.38 2.36801 177.54 2.27201 177.732 2.20801C177.924 2.08001 178.084 1.984 178.212 1.92001C178.404 1.85601 178.628 1.69601 178.884 1.44001C179.332 1.37601 179.78 1.28001 180.228 1.152C180.676 1.02401 181.124 1.05601 181.572 1.248C181.828 1.184 182.052 1.12 182.244 1.05601C182.5 0.992006 182.756 0.928005 183.012 0.864002C184.292 0.288006 185.604 0.192007 186.948 0.576006C187.588 0.832006 188.164 0.832006 188.676 0.576006C188.868 0.768003 189.06 0.960003 189.252 1.152C189.444 1.28001 189.668 1.44001 189.924 1.632C190.18 1.76001 190.436 1.88801 190.692 2.016C190.948 2.14401 191.204 2.30401 191.46 2.496C191.46 2.62401 191.492 2.78401 191.556 2.976C191.62 3.168 191.652 3.36001 191.652 3.55201C191.78 4.128 191.908 4.672 192.036 5.184C192.164 5.696 192.356 6.24001 192.612 6.81601C192.74 7.264 192.804 7.712 192.804 8.16001C192.804 8.544 192.74 8.96 192.612 9.40801C192.548 9.66401 192.452 9.95201 192.324 10.272C192.26 10.528 192.228 10.816 192.228 11.136C192.228 11.328 192.196 11.488 192.132 11.616C191.748 12.064 191.492 12.544 191.364 13.056C191.3 13.568 191.204 14.08 191.076 14.592L190.788 14.88H190.308C189.348 14.176 188.452 13.984 187.62 14.304C187.172 14.368 186.724 14.368 186.276 14.304C184.868 13.92 183.588 14.272 182.436 15.36C182.372 15.424 182.276 15.52 182.148 15.648C182.084 15.776 181.988 15.904 181.86 16.032C181.796 16.416 181.732 16.8 181.668 17.184C181.668 17.568 181.668 17.952 181.668 18.336C181.476 18.592 181.284 18.784 181.092 18.912C180.9 19.04 180.708 19.2 180.516 19.392C180.26 19.584 180.004 19.84 179.748 20.16C179.492 20.544 179.62 20.832 180.132 21.024C180.324 21.088 180.356 21.248 180.228 21.504C180.164 21.76 180.132 22.016 180.132 22.272C180.132 22.592 180.1 22.848 180.036 23.04C179.972 23.168 179.844 23.488 179.652 24C179.652 24 179.62 24.128 179.556 24.384C179.556 24.64 179.524 24.928 179.46 25.248C179.268 25.44 179.108 25.664 178.98 25.92C178.852 26.176 178.724 26.432 178.596 26.688C178.34 27.904 178.564 28.96 179.268 29.856C179.652 29.984 179.972 30.016 180.228 29.952C180.548 29.824 180.868 29.76 181.188 29.76C181.508 29.76 181.796 29.76 182.052 29.76C182.372 29.696 182.66 29.632 182.916 29.568C183.172 29.44 183.428 29.312 183.684 29.184C184.004 29.056 184.292 28.928 184.548 28.8C185.38 28.672 186.18 28.64 186.948 28.704C187.716 28.704 188.484 28.768 189.252 28.896C189.572 28.96 189.86 29.056 190.116 29.184C190.436 29.248 190.628 29.408 190.692 29.664C191.012 29.984 191.332 30.272 191.652 30.528C191.972 30.784 192.292 31.072 192.612 31.392V34.272C192.804 34.784 193.06 35.232 193.38 35.616ZM58.9441 119.36C58.6241 119.936 58.2721 120.48 57.8881 120.992C57.5681 121.504 57.3121 122.048 57.1201 122.624C56.8641 123.072 56.5761 123.584 56.2561 124.16C55.9361 124.672 55.6161 125.184 55.2961 125.696C55.2321 125.824 55.1361 126.016 55.0081 126.272C54.9441 126.464 54.8481 126.688 54.7201 126.944C54.3361 127.648 54.0481 128.384 53.8561 129.152C53.7281 129.92 53.4081 130.656 52.8961 131.36C52.3201 132 51.8401 132.736 51.4561 133.568C51.0721 134.336 50.6241 135.072 50.1121 135.776C49.6641 136.416 49.2161 137.056 48.7681 137.696C48.3201 138.336 47.8401 139.008 47.3281 139.712C47.2641 139.776 47.2001 139.872 47.1361 140C47.1361 140.064 47.0721 140.192 46.9441 140.384C46.4321 141.792 45.9201 143.232 45.4081 144.704C44.8961 146.176 44.4801 147.68 44.1601 149.216C43.9681 149.856 43.7761 150.432 43.5841 150.944C43.3921 151.456 43.1361 151.968 42.8161 152.48C42.4321 153.12 42.0481 153.728 41.6641 154.304C41.2801 154.88 40.9281 155.488 40.6081 156.128C40.4801 156.448 40.2881 156.704 40.0321 156.896C39.3281 157.664 38.7201 158.496 38.2081 159.392C37.7601 160.288 37.3441 161.248 36.9601 162.272C36.7041 163.04 36.1921 163.68 35.4241 164.192C35.1041 164.448 34.7521 164.704 34.3681 164.96C33.9841 165.216 33.6001 165.472 33.2161 165.728C33.0881 165.664 32.8001 165.632 32.3521 165.632C32.1601 165.568 31.9681 165.536 31.7761 165.536C31.6481 165.536 31.5201 165.504 31.3921 165.44C31.2001 165.504 31.0081 165.632 30.8161 165.824C30.6881 165.952 30.4961 166.08 30.2401 166.208C29.7921 166.144 29.2161 165.952 28.5121 165.632C28.0641 165.696 27.6161 165.76 27.1681 165.824C26.7201 165.888 26.3041 165.92 25.9201 165.92C24.9601 165.984 23.9681 166.048 22.9441 166.112C21.9841 166.176 21.0241 166.272 20.0641 166.4C19.5521 166.528 19.1041 166.464 18.7201 166.208C18.4641 165.824 18.3361 165.408 18.3361 164.96C18.3361 164.448 18.2721 163.872 18.1441 163.232C17.8881 162.784 17.5681 162.336 17.1841 161.888C16.8641 161.44 16.6401 160.928 16.5121 160.352V159.296C16.4481 158.976 16.2561 158.688 15.9361 158.432C15.6161 158.176 15.4241 157.856 15.3601 157.472C15.2961 157.28 15.2641 157.088 15.2641 156.896C15.2641 156.64 15.2001 156.384 15.0721 156.128C15.0081 155.616 14.8801 155.136 14.6881 154.688C14.5601 154.176 14.3041 153.696 13.9201 153.248C13.2161 152.544 12.7681 151.68 12.5761 150.656C12.5121 150.208 12.3841 149.76 12.1921 149.312C12.0641 148.8 11.9041 148.32 11.7121 147.872C11.2641 146.784 10.8481 145.696 10.4641 144.608C10.1441 143.456 9.76005 142.304 9.31205 141.152C9.05605 140.64 8.86405 140.128 8.73605 139.616C8.67205 139.104 8.57605 138.592 8.44805 138.08C8.32005 137.952 8.16005 137.824 7.96805 137.696C7.84005 137.504 7.71205 137.28 7.58405 137.024C7.64805 136.768 7.74405 136.48 7.87205 136.16C8.00005 135.776 8.09605 135.424 8.16005 135.104C8.03205 134.592 7.87205 134.176 7.68005 133.856C7.48805 133.472 7.42405 133.024 7.48805 132.512C7.23205 132.384 6.97605 132.256 6.72005 132.128C6.52805 131.936 6.30405 131.808 6.04805 131.744C5.02405 130.656 4.57605 129.344 4.70405 127.808C4.57605 127.296 4.35205 126.912 4.03205 126.656C3.77605 126.336 3.52005 126.048 3.26405 125.792C3.07205 125.28 2.88005 124.768 2.68805 124.256C2.49605 123.744 2.30405 123.264 2.11205 122.816C1.85605 122.56 1.60005 122.336 1.34405 122.144C1.08805 121.952 0.832051 121.728 0.576051 121.472C0.256051 120.768 0.0640509 120.096 5.10216e-05 119.456C5.10216e-05 118.816 0.064051 118.144 0.192051 117.44C0.320051 117.184 0.448051 116.928 0.576051 116.672C0.704051 116.416 0.864051 116.224 1.05605 116.096C1.95205 115.456 2.81605 114.784 3.64805 114.08C4.48005 113.312 5.34405 112.64 6.24005 112.064C6.75205 111.808 7.23205 111.552 7.68005 111.296C8.12805 111.04 8.60805 110.88 9.12005 110.816C9.63205 110.688 10.0801 110.528 10.4641 110.336C10.8481 110.144 11.2321 109.984 11.6161 109.856C11.8721 109.792 12.1281 109.76 12.3841 109.76C12.7041 109.696 12.9921 109.632 13.2481 109.568C13.3761 109.568 13.5361 109.6 13.7281 109.664C13.9201 109.728 14.0161 109.856 14.0161 110.048C14.0801 110.56 14.3361 110.976 14.7841 111.296C15.2321 111.552 15.4881 111.936 15.5521 112.448C15.6801 112.768 15.8081 113.088 15.9361 113.408C16.1281 113.664 16.2561 113.92 16.3201 114.176C16.3841 114.56 16.4801 114.944 16.6081 115.328C16.8001 115.648 16.9601 116 17.0881 116.384C17.5361 117.216 18.0161 118.048 18.5281 118.88C19.1041 119.712 19.7121 120.512 20.3521 121.28C20.8001 121.792 21.2161 122.368 21.6001 123.008C21.9841 123.648 22.2081 124.384 22.2721 125.216C22.2721 125.472 22.3361 125.696 22.4641 125.888C22.5921 126.016 22.6881 126.208 22.7521 126.464C23.1361 127.488 23.4881 128.512 23.8081 129.536C24.1921 130.496 24.5121 131.52 24.7681 132.608C24.8321 132.928 24.8961 133.28 24.9601 133.664C25.0881 134.048 25.1201 134.432 25.0561 134.816C25.3121 136.096 25.6961 137.472 26.2081 138.944C26.4641 139.328 26.7521 139.712 27.0721 140.096C27.3921 140.416 27.6801 140.768 27.9361 141.152C28.0641 141.152 28.2241 141.184 28.4161 141.248C28.6081 141.248 28.7681 141.216 28.8961 141.152C29.6001 140.96 30.1761 140.48 30.6241 139.712C30.7521 139.456 30.8161 139.232 30.8161 139.04C30.8801 138.848 30.9441 138.656 31.0081 138.464C31.7761 137.568 32.4161 136.64 32.9281 135.68C33.5041 134.72 34.1441 133.824 34.8481 132.992V131.84C35.1041 131.456 35.3921 131.072 35.7121 130.688C36.0321 130.304 36.2241 129.888 36.2881 129.44C36.4161 128.672 36.6401 127.968 36.9601 127.328C37.3441 126.624 37.7601 125.984 38.2081 125.408C39.0401 124 39.8401 122.72 40.6081 121.568C40.8001 121.376 40.9601 121.216 41.0881 121.088C41.2801 120.96 41.4081 120.832 41.4721 120.704C41.5361 120.384 41.5361 120.128 41.4721 119.936C41.4721 119.744 41.5681 119.52 41.7601 119.264C42.1441 118.752 42.4001 118.176 42.5281 117.536C42.6561 116.896 42.9121 116.352 43.2961 115.904C43.4241 114.88 43.7121 113.984 44.1601 113.216C44.6721 112.448 45.1201 111.648 45.5041 110.816C45.5041 110.88 45.5681 110.784 45.6961 110.528C45.9521 110.144 46.3681 110.08 46.9441 110.336C47.2001 110.528 47.4561 110.72 47.7121 110.912C47.9681 111.04 48.2561 111.264 48.5761 111.584C48.8961 111.584 49.2161 111.584 49.5361 111.584C49.9201 111.584 50.3041 111.616 50.6881 111.68C51.0721 111.744 51.4561 111.84 51.8401 111.968C52.2881 112.096 52.7041 112.288 53.0881 112.544C53.6001 112.8 54.0801 113.088 54.5281 113.408C55.0401 113.728 55.5201 114.016 55.9681 114.272C56.2881 114.72 56.5761 115.136 56.8321 115.52C57.1521 115.84 57.4401 116.16 57.6961 116.48C57.8241 116.992 57.9521 117.504 58.0801 118.016C58.2721 118.528 58.5601 118.976 58.9441 119.36ZM8.73605 137.792C8.73605 137.792 8.70405 137.824 8.64005 137.888C8.64005 137.952 8.64005 138.016 8.64005 138.08C8.76805 138.016 8.83205 137.952 8.83205 137.888C8.89605 137.824 8.86405 137.792 8.73605 137.792ZM83.3693 114.944C83.5613 115.392 83.6253 115.872 83.5613 116.384C83.4973 116.832 83.4013 117.28 83.2733 117.728C83.2093 118.112 83.0813 118.496 82.8893 118.88C82.6973 119.2 82.5373 119.52 82.4093 119.84C82.1533 120.224 81.8653 120.576 81.5453 120.896C81.2893 121.216 81.0333 121.536 80.7773 121.856C80.5853 121.92 80.4253 122.048 80.2973 122.24C80.1693 122.368 80.0093 122.496 79.8173 122.624C79.3693 122.944 78.6653 123.264 77.7053 123.584C76.7453 123.84 75.9773 123.968 75.4013 123.968C75.0813 123.968 74.8253 123.904 74.6333 123.776C74.2493 123.776 73.8653 123.776 73.4813 123.776C73.0973 123.712 72.7453 123.68 72.4253 123.68C72.2333 123.552 72.0093 123.424 71.7533 123.296C71.5613 123.168 71.4013 123.04 71.2733 122.912C70.9533 122.784 70.6013 122.72 70.2173 122.72C69.8973 122.72 69.5773 122.72 69.2573 122.72C69.0013 122.528 68.6813 122.368 68.2973 122.24C67.9773 122.048 67.6573 121.888 67.3373 121.76L66.7613 120.032C66.8253 119.52 66.8893 118.976 66.9533 118.4C67.0173 117.76 66.9533 117.12 66.7613 116.48C66.5693 116.352 66.5693 116.192 66.7613 116C66.9533 115.552 66.9533 115.104 66.7613 114.656C66.5693 114.208 66.5693 113.76 66.7613 113.312C66.8253 113.184 66.8573 112.992 66.8573 112.736C66.6653 112.352 66.6653 112 66.8573 111.68C67.0493 111.296 67.2093 110.976 67.3373 110.72C67.2733 110.528 67.2413 110.336 67.2413 110.144C67.2413 109.888 67.2413 109.696 67.2413 109.568C67.3053 109.504 67.3373 109.44 67.3373 109.376C67.4013 109.248 67.4973 109.152 67.6253 109.088C68.1373 108.96 68.5533 108.736 68.8733 108.416C69.2573 108.032 69.6733 107.744 70.1213 107.552C70.5693 107.168 71.0493 106.848 71.5613 106.592C72.1373 106.336 72.6813 106.08 73.1933 105.824C73.7053 105.824 74.1533 105.824 74.5373 105.824C74.9213 105.824 75.3053 105.888 75.6893 106.016C75.8813 106.08 76.1053 106.112 76.3613 106.112C76.6173 106.112 76.8733 106.112 77.1293 106.112C78.0253 105.984 78.7293 106.336 79.2413 107.168C79.3693 107.488 79.5933 107.68 79.9133 107.744C80.2333 107.808 80.5213 107.904 80.7773 108.032C81.4173 108.608 81.8333 109.344 82.0253 110.24C82.1533 110.624 82.2813 111.008 82.4093 111.392C82.6013 111.776 82.7293 112.16 82.7933 112.544C82.9213 112.928 83.0173 113.344 83.0813 113.792C83.2093 114.176 83.3053 114.56 83.3693 114.944ZM82.7933 137.024C82.6653 137.408 82.6013 137.856 82.6013 138.368C82.6013 138.816 82.6013 139.296 82.6013 139.808C82.6653 140.256 82.6653 140.736 82.6013 141.248C82.5373 141.696 82.5053 142.144 82.5053 142.592L81.8333 143.552C82.1533 143.872 82.3453 144.224 82.4093 144.608C82.4733 144.992 82.5053 145.408 82.5053 145.856C82.5053 146.304 82.5053 146.784 82.5053 147.296C82.5053 147.744 82.4733 148.224 82.4093 148.736C82.3453 149.184 82.2173 149.664 82.0253 150.176C81.8333 150.688 81.6733 151.232 81.5453 151.808C81.5453 152.448 81.5133 153.216 81.4493 154.112C81.4493 154.944 81.4813 155.776 81.5453 156.608C81.6093 157.824 81.5453 159.072 81.3533 160.352C81.1613 161.568 80.7773 162.72 80.2013 163.808C80.2013 164.32 80.2653 164.832 80.3933 165.344C80.5213 165.792 80.6493 166.272 80.7773 166.784C80.7773 166.848 80.7453 166.912 80.6813 166.976C80.6173 167.104 80.5853 167.232 80.5853 167.36C80.2653 167.808 79.8813 168.192 79.4333 168.512C79.3693 168.512 79.3053 168.544 79.2413 168.608H78.8573C78.1533 168.608 77.4173 168.64 76.6493 168.704C75.9453 168.832 75.1453 168.8 74.2493 168.608C73.9933 168.48 73.7053 168.32 73.3853 168.128C73.1293 167.936 72.8413 167.776 72.5213 167.648C72.2653 167.648 71.9453 167.616 71.5613 167.552C71.2413 167.552 70.9213 167.52 70.6013 167.456C70.0893 166.88 69.5773 166.272 69.0653 165.632C68.8733 165.504 68.6493 165.408 68.3933 165.344C68.1373 165.28 67.8813 165.184 67.6253 165.056C67.1773 164.736 67.0173 164.224 67.1453 163.52C67.2733 162.816 67.4333 162.208 67.6253 161.696C67.8173 160.864 67.7853 160.064 67.5293 159.296L67.1453 157.952C67.1453 157.44 67.1133 156.96 67.0493 156.512C66.9853 156.064 66.9853 155.616 67.0493 155.168C67.1133 154.528 67.1133 153.92 67.0493 153.344C67.0493 152.768 67.0493 152.16 67.0493 151.52C67.1133 150.624 67.1453 149.76 67.1453 148.928C67.1453 148.032 67.1453 147.168 67.1453 146.336C67.1453 146.016 67.1773 145.824 67.2413 145.76C67.5613 145.248 67.7213 144.768 67.7213 144.32C67.7213 143.808 67.7213 143.296 67.7213 142.784C67.6573 142.272 67.6573 141.76 67.7213 141.248C67.8493 140.672 67.8493 140.16 67.7213 139.712C67.7213 139.136 67.7213 138.592 67.7213 138.08C67.7213 137.504 67.7533 136.928 67.8173 136.352C67.8813 136.032 67.9133 135.712 67.9133 135.392C67.9773 135.008 67.9453 134.592 67.8173 134.144C68.3933 133.888 68.8733 133.696 69.2573 133.568C69.7053 133.44 70.1213 133.376 70.5053 133.376C70.7613 133.376 71.0173 133.376 71.2733 133.376C71.5933 133.376 71.8813 133.344 72.1373 133.28C72.7773 133.152 73.3213 133.024 73.7693 132.896C74.0893 132.96 74.3453 133.088 74.5373 133.28C74.7933 133.408 75.0493 133.536 75.3053 133.664C75.7533 133.664 76.2013 133.568 76.6493 133.376C77.0973 133.312 77.4813 133.344 77.8013 133.472C78.1853 133.6 78.4733 133.92 78.6653 134.432C78.7293 134.496 78.7613 134.56 78.7613 134.624C78.8253 134.688 78.8893 134.752 78.9533 134.816L79.6253 135.2C80.0733 135.264 80.4573 135.2 80.7773 135.008C81.0973 134.752 81.4173 134.592 81.7373 134.528C82.1213 134.528 82.3453 134.688 82.4093 135.008C82.6013 135.456 82.7293 136.128 82.7933 137.024ZM117.235 158.432C117.235 159.008 116.979 159.488 116.467 159.872C115.955 160.384 115.827 160.992 116.083 161.696C116.211 162.144 116.275 162.624 116.275 163.136C116.275 163.648 116.275 164.16 116.275 164.672C116.211 164.8 116.115 164.96 115.987 165.152C115.923 165.28 115.827 165.408 115.699 165.536C115.443 165.664 115.283 165.728 115.219 165.728C114.707 165.792 114.195 165.856 113.683 165.92C113.171 165.92 112.659 165.92 112.147 165.92C111.827 165.92 111.667 165.92 111.667 165.92C110.771 165.664 109.875 165.536 108.979 165.536C108.147 165.472 107.315 165.376 106.483 165.248C105.971 165.12 105.491 165.056 105.043 165.056C104.595 165.056 104.147 165.12 103.699 165.248C103.059 164.928 102.419 164.608 101.779 164.288C101.203 163.904 100.563 163.552 99.8588 163.232C99.4108 162.528 98.8348 161.952 98.1308 161.504C97.4908 160.992 96.9148 160.384 96.4028 159.68C96.2748 159.36 96.1148 159.04 95.9228 158.72C95.7948 158.4 95.6348 158.112 95.4428 157.856C94.8028 156.896 94.3868 155.84 94.1948 154.688C94.1948 154.24 94.0348 153.856 93.7148 153.536C93.2028 152.576 93.0748 151.68 93.3308 150.848C93.3948 150.72 93.3948 150.592 93.3308 150.464C93.3308 150.272 93.3628 150.144 93.4268 150.08C93.1708 149.76 92.9788 149.504 92.8508 149.312C92.7228 149.12 92.5948 148.928 92.4668 148.736C92.4668 148.288 92.4988 147.968 92.5628 147.776L91.7948 146.816C91.9228 146.112 92.0188 145.408 92.0828 144.704C92.2108 143.936 92.3388 143.232 92.4668 142.592L91.7948 141.632C91.7948 141.376 91.8908 141.184 92.0828 141.056C92.2748 140.864 92.4348 140.64 92.5628 140.384C92.8188 139.68 92.9788 139.008 93.0428 138.368C93.2348 137.6 93.3308 136.864 93.3308 136.16C93.2028 134.752 93.2028 133.376 93.3308 132.032C93.4588 130.688 93.4908 129.312 93.4268 127.904C93.7468 126.496 93.8748 125.088 93.8108 123.68C93.7468 122.272 93.8428 120.896 94.0988 119.552C94.0988 119.232 94.0988 119.072 94.0988 119.072C93.9068 118.304 93.9068 117.568 94.0988 116.864C94.2908 116.16 94.5148 115.52 94.7708 114.944C94.7068 114.816 94.6748 114.656 94.6748 114.464C94.6748 114.272 94.6108 114.112 94.4828 113.984C94.6108 113.536 94.8028 113.184 95.0588 112.928C95.3148 112.608 95.5388 112.32 95.7308 112.064C95.8588 111.808 95.9548 111.552 96.0188 111.296C96.1468 110.976 96.2428 110.688 96.3068 110.432L96.9788 109.76C97.5548 109.632 98.1628 109.6 98.8028 109.664C98.9948 109.728 99.1868 109.824 99.3788 109.952C99.6348 110.08 99.8908 110.208 100.147 110.336C100.595 110.592 101.011 110.816 101.395 111.008C101.843 111.136 102.323 111.168 102.835 111.104C103.539 111.36 104.211 111.52 104.851 111.584C105.555 111.648 106.227 111.648 106.867 111.584H107.251C107.251 111.584 107.251 111.616 107.251 111.68C107.315 111.68 107.379 111.68 107.443 111.68C107.763 111.744 108.051 111.904 108.307 112.16C108.563 112.416 108.627 112.704 108.499 113.024C108.371 113.984 108.275 114.944 108.211 115.904C108.211 116.864 108.147 117.824 108.019 118.784C107.891 119.68 107.763 120.608 107.635 121.568C107.507 122.464 107.347 123.36 107.155 124.256C107.091 125.664 106.963 127.072 106.771 128.48C106.643 129.824 106.579 131.168 106.579 132.512C106.579 132.704 106.579 132.864 106.579 132.992C106.643 133.12 106.675 133.248 106.675 133.376C106.355 134.016 106.099 134.656 105.907 135.296C105.779 135.936 105.619 136.608 105.427 137.312C105.299 137.824 105.299 138.368 105.427 138.944C105.619 139.712 105.683 140.48 105.619 141.248C105.619 142.016 105.555 142.816 105.427 143.648V144.224C105.555 144.48 105.683 144.768 105.811 145.088C106.003 145.408 106.163 145.728 106.291 146.048C106.227 146.24 106.163 146.464 106.099 146.72C106.035 146.912 105.971 147.104 105.907 147.296C106.035 147.616 106.099 147.968 106.099 148.352C106.163 148.736 106.227 149.088 106.291 149.408C106.547 149.728 106.803 150.048 107.059 150.368C107.315 150.624 107.475 150.944 107.539 151.328C107.539 151.456 107.603 151.616 107.731 151.808C107.859 152 107.955 152.16 108.019 152.288C108.147 152.608 108.339 152.864 108.595 153.056C108.915 153.248 109.203 153.408 109.459 153.536C109.907 153.6 110.323 153.696 110.707 153.824C111.091 153.952 111.507 154.08 111.955 154.208C112.211 154.208 112.403 154.208 112.531 154.208C112.723 154.144 112.915 154.112 113.107 154.112C113.235 154.176 113.395 154.24 113.587 154.304C113.843 154.368 114.067 154.432 114.259 154.496C114.323 154.56 114.387 154.656 114.451 154.784C114.515 154.848 114.579 154.912 114.643 154.976C114.771 155.488 115.123 156.032 115.699 156.608C116.019 156.864 116.307 157.152 116.563 157.472C116.883 157.728 117.107 158.048 117.235 158.432ZM151.079 158.432C151.079 159.008 150.823 159.488 150.311 159.872C149.799 160.384 149.671 160.992 149.927 161.696C150.055 162.144 150.119 162.624 150.119 163.136C150.119 163.648 150.119 164.16 150.119 164.672C150.055 164.8 149.959 164.96 149.831 165.152C149.767 165.28 149.671 165.408 149.543 165.536C149.287 165.664 149.127 165.728 149.063 165.728C148.551 165.792 148.039 165.856 147.527 165.92C147.015 165.92 146.503 165.92 145.991 165.92C145.671 165.92 145.511 165.92 145.511 165.92C144.615 165.664 143.719 165.536 142.823 165.536C141.991 165.472 141.159 165.376 140.327 165.248C139.815 165.12 139.335 165.056 138.887 165.056C138.439 165.056 137.991 165.12 137.543 165.248C136.903 164.928 136.263 164.608 135.623 164.288C135.047 163.904 134.407 163.552 133.703 163.232C133.255 162.528 132.679 161.952 131.975 161.504C131.335 160.992 130.759 160.384 130.247 159.68C130.119 159.36 129.959 159.04 129.767 158.72C129.639 158.4 129.479 158.112 129.287 157.856C128.647 156.896 128.231 155.84 128.039 154.688C128.039 154.24 127.879 153.856 127.559 153.536C127.047 152.576 126.919 151.68 127.175 150.848C127.239 150.72 127.239 150.592 127.175 150.464C127.175 150.272 127.207 150.144 127.271 150.08C127.015 149.76 126.823 149.504 126.695 149.312C126.567 149.12 126.439 148.928 126.311 148.736C126.311 148.288 126.343 147.968 126.407 147.776L125.639 146.816C125.767 146.112 125.863 145.408 125.927 144.704C126.055 143.936 126.183 143.232 126.311 142.592L125.639 141.632C125.639 141.376 125.735 141.184 125.927 141.056C126.119 140.864 126.279 140.64 126.407 140.384C126.663 139.68 126.823 139.008 126.887 138.368C127.079 137.6 127.175 136.864 127.175 136.16C127.047 134.752 127.047 133.376 127.175 132.032C127.303 130.688 127.335 129.312 127.271 127.904C127.591 126.496 127.719 125.088 127.655 123.68C127.591 122.272 127.687 120.896 127.943 119.552C127.943 119.232 127.943 119.072 127.943 119.072C127.751 118.304 127.751 117.568 127.943 116.864C128.135 116.16 128.359 115.52 128.615 114.944C128.551 114.816 128.519 114.656 128.519 114.464C128.519 114.272 128.455 114.112 128.327 113.984C128.455 113.536 128.647 113.184 128.903 112.928C129.159 112.608 129.383 112.32 129.575 112.064C129.703 111.808 129.799 111.552 129.863 111.296C129.991 110.976 130.087 110.688 130.151 110.432L130.823 109.76C131.399 109.632 132.007 109.6 132.647 109.664C132.839 109.728 133.031 109.824 133.223 109.952C133.479 110.08 133.735 110.208 133.991 110.336C134.439 110.592 134.855 110.816 135.239 111.008C135.687 111.136 136.167 111.168 136.679 111.104C137.383 111.36 138.055 111.52 138.695 111.584C139.399 111.648 140.071 111.648 140.711 111.584H141.095C141.095 111.584 141.095 111.616 141.095 111.68C141.159 111.68 141.223 111.68 141.287 111.68C141.607 111.744 141.895 111.904 142.151 112.16C142.407 112.416 142.471 112.704 142.343 113.024C142.215 113.984 142.119 114.944 142.055 115.904C142.055 116.864 141.991 117.824 141.863 118.784C141.735 119.68 141.607 120.608 141.479 121.568C141.351 122.464 141.191 123.36 140.999 124.256C140.935 125.664 140.807 127.072 140.615 128.48C140.487 129.824 140.423 131.168 140.423 132.512C140.423 132.704 140.423 132.864 140.423 132.992C140.487 133.12 140.519 133.248 140.519 133.376C140.199 134.016 139.943 134.656 139.751 135.296C139.623 135.936 139.463 136.608 139.271 137.312C139.143 137.824 139.143 138.368 139.271 138.944C139.463 139.712 139.527 140.48 139.463 141.248C139.463 142.016 139.399 142.816 139.271 143.648V144.224C139.399 144.48 139.527 144.768 139.655 145.088C139.847 145.408 140.007 145.728 140.135 146.048C140.071 146.24 140.007 146.464 139.943 146.72C139.879 146.912 139.815 147.104 139.751 147.296C139.879 147.616 139.943 147.968 139.943 148.352C140.007 148.736 140.071 149.088 140.135 149.408C140.391 149.728 140.647 150.048 140.903 150.368C141.159 150.624 141.319 150.944 141.383 151.328C141.383 151.456 141.447 151.616 141.575 151.808C141.703 152 141.799 152.16 141.863 152.288C141.991 152.608 142.183 152.864 142.439 153.056C142.759 153.248 143.047 153.408 143.303 153.536C143.751 153.6 144.167 153.696 144.551 153.824C144.935 153.952 145.351 154.08 145.799 154.208C146.055 154.208 146.247 154.208 146.375 154.208C146.567 154.144 146.759 154.112 146.951 154.112C147.079 154.176 147.239 154.24 147.431 154.304C147.687 154.368 147.911 154.432 148.103 154.496C148.167 154.56 148.231 154.656 148.295 154.784C148.359 154.848 148.423 154.912 148.487 154.976C148.615 155.488 148.967 156.032 149.543 156.608C149.863 156.864 150.151 157.152 150.407 157.472C150.727 157.728 150.951 158.048 151.079 158.432ZM200.858 132.32C200.794 132.96 200.73 133.632 200.666 134.336C200.666 134.976 200.602 135.616 200.474 136.256C200.41 136.896 200.378 137.6 200.378 138.368C200.378 139.072 200.25 139.808 199.994 140.576C199.866 140.768 199.706 140.992 199.514 141.248C199.322 141.44 199.13 141.696 198.938 142.016C198.938 142.272 198.938 142.496 198.938 142.688C199.002 142.88 199.066 143.104 199.13 143.36C199.002 143.68 198.81 143.968 198.554 144.224C198.298 144.416 198.042 144.576 197.786 144.704C197.146 144.896 196.538 145.088 195.962 145.28C195.45 145.472 194.906 145.632 194.33 145.76C193.434 145.888 192.506 145.92 191.546 145.856C190.586 145.728 189.626 145.696 188.666 145.76C187.834 145.76 186.938 145.792 185.978 145.856C185.082 145.856 184.154 145.856 183.194 145.856H177.818C177.562 146.048 177.274 146.112 176.954 146.048C176.698 145.984 176.442 146.016 176.186 146.144C175.93 146.016 175.642 146.016 175.322 146.144C175.002 146.208 174.682 146.176 174.362 146.048C174.106 146.112 173.85 146.176 173.594 146.24C173.402 146.24 173.146 146.272 172.826 146.336C172.57 146.272 172.346 146.208 172.154 146.144C171.962 146.016 171.738 146.048 171.482 146.24C171.61 146.432 171.738 146.656 171.866 146.912C172.058 147.104 172.186 147.36 172.25 147.68C172.442 147.936 172.602 148.192 172.73 148.448C172.858 148.704 172.986 148.992 173.114 149.312C173.242 149.568 173.338 149.856 173.402 150.176C173.466 150.432 173.53 150.688 173.594 150.944C173.914 151.264 174.266 151.584 174.65 151.904C175.034 152.224 175.418 152.544 175.802 152.864C176.122 152.928 176.442 152.992 176.762 153.056C177.146 153.12 177.498 153.184 177.818 153.248C178.202 153.312 178.586 153.376 178.97 153.44C179.354 153.504 179.77 153.504 180.218 153.44C180.666 153.312 181.082 153.344 181.466 153.536C181.85 153.664 182.266 153.76 182.714 153.824C183.29 153.76 183.866 153.696 184.442 153.632C185.082 153.568 185.69 153.504 186.266 153.44C186.522 153.248 186.778 153.088 187.034 152.96C187.354 152.768 187.642 152.576 187.898 152.384C188.73 152.192 189.562 152.224 190.394 152.48C190.586 152.8 190.81 153.12 191.066 153.44C191.386 153.76 191.674 154.112 191.93 154.496C192.314 155.072 192.698 155.648 193.082 156.224C193.466 156.736 193.722 157.344 193.85 158.048C193.978 158.368 194.17 158.688 194.426 159.008C194.682 159.328 194.874 159.616 195.002 159.872C195.066 160.192 195.034 160.48 194.906 160.736C194.842 160.992 194.778 161.28 194.714 161.6C194.458 161.856 194.138 162.08 193.754 162.272C193.69 162.272 193.626 162.336 193.562 162.464C193.498 162.592 193.402 162.688 193.274 162.752C192.89 163.008 192.506 163.264 192.122 163.52C191.738 163.776 191.386 164.032 191.066 164.288C190.17 165.056 189.242 165.44 188.282 165.44C187.898 165.44 187.61 165.472 187.418 165.536C187.098 165.6 186.778 165.728 186.458 165.92C186.138 166.112 185.786 166.272 185.402 166.4C185.082 166.4 184.762 166.432 184.442 166.496C184.122 166.624 183.802 166.72 183.482 166.784C183.29 166.784 183.066 166.752 182.81 166.688C182.554 166.688 182.298 166.688 182.042 166.688C181.466 166.752 180.89 166.72 180.314 166.592C179.738 166.464 179.162 166.4 178.586 166.4C178.394 166.336 178.202 166.272 178.01 166.208C177.818 166.144 177.626 166.112 177.434 166.112C176.346 166.176 175.322 166.016 174.362 165.632C173.402 165.184 172.442 164.736 171.482 164.288C170.714 164.096 170.17 163.744 169.85 163.232C169.402 162.72 168.89 162.304 168.314 161.984C167.802 161.6 167.226 161.28 166.586 161.024C166.202 160.896 165.818 160.736 165.434 160.544C165.05 160.288 164.634 160.032 164.186 159.776C164.122 159.52 164.026 159.264 163.898 159.008C163.77 158.752 163.642 158.496 163.514 158.24C163.386 158.048 163.194 157.856 162.938 157.664C162.746 157.472 162.554 157.28 162.362 157.088C162.17 156.896 162.01 156.672 161.882 156.416C161.562 155.328 161.242 154.272 160.922 153.248C160.602 152.16 160.186 151.104 159.674 150.08C159.738 149.632 159.77 149.184 159.77 148.736C159.834 148.224 159.802 147.68 159.674 147.104C159.61 146.976 159.578 146.816 159.578 146.624C159.578 146.432 159.578 146.272 159.578 146.144C159.578 145.824 159.578 145.568 159.578 145.376C159.642 145.12 159.642 144.896 159.578 144.704C159.514 144.192 159.45 143.68 159.386 143.168C159.322 142.656 159.354 142.176 159.482 141.728C159.61 141.216 159.738 140.704 159.866 140.192C159.994 139.68 160.154 139.136 160.346 138.56C160.282 138.432 160.25 138.24 160.25 137.984C160.25 137.728 160.218 137.472 160.154 137.216C160.282 136.512 160.41 135.808 160.538 135.104C160.666 134.4 160.826 133.728 161.018 133.088C161.21 132.704 161.402 132.352 161.594 132.032C161.85 131.648 162.106 131.264 162.362 130.88C162.81 130.112 163.162 129.376 163.418 128.672C164.186 128.288 164.634 128.064 164.762 128C164.954 127.872 165.114 127.712 165.242 127.52C165.37 127.328 165.786 126.944 166.49 126.368C166.426 126.176 166.586 125.888 166.97 125.504C167.354 125.12 167.482 124.8 167.354 124.544C167.93 123.456 168.762 122.592 169.85 121.952C170.234 121.696 170.586 121.44 170.906 121.184C171.29 120.864 171.61 120.576 171.866 120.32C172.186 120.128 172.474 120.064 172.73 120.128C173.05 120.128 173.338 120.128 173.594 120.128C173.786 120.064 173.978 120.032 174.17 120.032C174.426 119.968 174.682 119.904 174.938 119.84C175.066 119.776 175.226 119.712 175.418 119.648C175.61 119.584 175.77 119.488 175.898 119.36C176.026 119.296 176.154 119.232 176.282 119.168C176.41 119.104 176.538 119.072 176.666 119.072C177.242 119.008 177.786 118.848 178.298 118.592C178.81 118.336 179.29 118.08 179.738 117.824C180.698 118.208 181.69 118.336 182.714 118.208C183.354 118.144 183.962 118.176 184.538 118.304C185.178 118.432 185.754 118.592 186.266 118.784L187.61 118.4C188.122 118.464 188.602 118.624 189.05 118.88C189.498 119.136 189.946 119.392 190.394 119.648H191.258C191.322 119.712 191.386 119.776 191.45 119.84C191.514 119.84 191.578 119.872 191.642 119.936C192.346 120.576 193.018 121.184 193.658 121.76C194.298 122.272 194.97 122.816 195.674 123.392C196.634 124.032 197.242 124.8 197.498 125.696C197.754 126.08 197.978 126.368 198.17 126.56C198.938 127.2 199.61 128.064 200.186 129.152C200.186 129.28 200.186 129.472 200.186 129.728C200.25 129.92 200.282 130.112 200.282 130.304C200.218 130.624 200.282 130.944 200.474 131.264C200.666 131.584 200.794 131.936 200.858 132.32ZM188.666 135.488V133.088C188.666 132.768 188.634 132.576 188.57 132.512C188.506 132.32 188.41 132.128 188.282 131.936C188.218 131.744 188.154 131.616 188.09 131.552V129.92L187.802 129.632C187.546 129.632 187.226 129.568 186.842 129.44C186.714 128.864 186.554 128.416 186.362 128.096C186.17 127.84 185.914 127.68 185.594 127.616C185.274 127.552 184.922 127.456 184.538 127.328C183.706 127.584 182.81 127.808 181.85 128C180.89 128.192 179.962 128.448 179.066 128.768C178.618 128.832 178.202 128.864 177.818 128.864C177.434 128.864 177.05 128.896 176.666 128.96C176.026 129.216 175.45 129.632 174.938 130.208C174.49 130.72 174.042 131.232 173.594 131.744C173.338 132.064 173.114 132.416 172.922 132.8C172.73 133.184 172.506 133.536 172.25 133.856C172.186 133.92 172.154 134.112 172.154 134.432C172.346 134.944 172.634 135.264 173.018 135.392C173.402 135.456 173.786 135.552 174.17 135.68C174.554 135.808 174.97 135.936 175.418 136.064C175.61 136 175.77 135.968 175.898 135.968C176.09 135.968 176.282 135.936 176.474 135.872C177.242 135.552 177.882 135.52 178.394 135.776C178.906 135.84 179.354 135.84 179.738 135.776C180.186 135.712 180.634 135.648 181.082 135.584C181.466 135.776 181.85 135.904 182.234 135.968C182.682 136.032 183.098 136.128 183.482 136.256C184.314 136.512 185.114 136.64 185.882 136.64C186.65 136.64 187.418 136.544 188.186 136.352C188.506 136.032 188.666 135.744 188.666 135.488Z" fill="black"/>
</svg>
